<?xml version="1.0" encoding="utf-8" standalone="no"?>
<!DOCTYPE svg PUBLIC "-//W3C//DTD SVG 1.1//EN"
  "http://www.w3.org/Graphics/SVG/1.1/DTD/svg11.dtd">
<svg height="310.86825pt" version="1.1" viewBox="0 0 414.46375 310.86825" width="414.46375pt" xmlns="http://www.w3.org/2000/svg" xmlns:xlink="http://www.w3.org/1999/xlink">
 <metadata>
  <rdf:RDF xmlns:cc="http://creativecommons.org/ns#" xmlns:dc="http://purl.org/dc/elements/1.1/" xmlns:rdf="http://www.w3.org/1999/02/22-rdf-syntax-ns#">
   <cc:Work>
    <dc:type rdf:resource="http://purl.org/dc/dcmitype/StillImage"/>
    <dc:date>2021-10-06T13:59:05.641306</dc:date>
    <dc:format>image/svg+xml</dc:format>
    <dc:creator>
     <cc:Agent>
      <dc:title>Matplotlib v3.4.3, https://matplotlib.org/</dc:title>
     </cc:Agent>
    </dc:creator>
   </cc:Work>
  </rdf:RDF>
 </metadata>
 <defs>
  <style type="text/css">*{stroke-linecap:butt;stroke-linejoin:round;}</style>
 </defs>
 <g id="figure_1">
  <g id="patch_1">
   <path d="M 0 310.86825 
L 414.46375 310.86825 
L 414.46375 0 
L 0 0 
z
" style="fill:#ffffff;"/>
  </g>
  <g id="axes_1">
   <g id="patch_2">
    <path d="M 50.14375 273.312 
L 407.26375 273.312 
L 407.26375 7.2 
L 50.14375 7.2 
z
" style="fill:#ffffff;"/>
   </g>
   <g id="patch_3">
    <path clip-path="url(#pe932a5fe6b)" d="M 68.692009 273.312 
L 70.303697 273.312 
L 70.303697 269.674105 
L 68.692009 269.674105 
z
" style="fill:#1f77b4;"/>
   </g>
   <g id="patch_4">
    <path clip-path="url(#pe932a5fe6b)" d="M 70.303697 273.312 
L 71.915384 273.312 
L 71.915384 270.280421 
L 70.303697 270.280421 
z
" style="fill:#1f77b4;"/>
   </g>
   <g id="patch_5">
    <path clip-path="url(#pe932a5fe6b)" d="M 71.915384 273.312 
L 73.527071 273.312 
L 73.527071 269.674105 
L 71.915384 269.674105 
z
" style="fill:#1f77b4;"/>
   </g>
   <g id="patch_6">
    <path clip-path="url(#pe932a5fe6b)" d="M 73.527071 273.312 
L 75.138759 273.312 
L 75.138759 268.461474 
L 73.527071 268.461474 
z
" style="fill:#1f77b4;"/>
   </g>
   <g id="patch_7">
    <path clip-path="url(#pe932a5fe6b)" d="M 75.138759 273.312 
L 76.750446 273.312 
L 76.750446 267.248842 
L 75.138759 267.248842 
z
" style="fill:#1f77b4;"/>
   </g>
   <g id="patch_8">
    <path clip-path="url(#pe932a5fe6b)" d="M 76.750446 273.312 
L 78.362133 273.312 
L 78.362133 265.429895 
L 76.750446 265.429895 
z
" style="fill:#1f77b4;"/>
   </g>
   <g id="patch_9">
    <path clip-path="url(#pe932a5fe6b)" d="M 78.362133 273.312 
L 79.973821 273.312 
L 79.973821 266.642526 
L 78.362133 266.642526 
z
" style="fill:#1f77b4;"/>
   </g>
   <g id="patch_10">
    <path clip-path="url(#pe932a5fe6b)" d="M 79.973821 273.312 
L 81.585508 273.312 
L 81.585508 266.642526 
L 79.973821 266.642526 
z
" style="fill:#1f77b4;"/>
   </g>
   <g id="patch_11">
    <path clip-path="url(#pe932a5fe6b)" d="M 81.585508 273.312 
L 83.197195 273.312 
L 83.197195 256.941474 
L 81.585508 256.941474 
z
" style="fill:#1f77b4;"/>
   </g>
   <g id="patch_12">
    <path clip-path="url(#pe932a5fe6b)" d="M 83.197195 273.312 
L 84.808883 273.312 
L 84.808883 263.610947 
L 83.197195 263.610947 
z
" style="fill:#1f77b4;"/>
   </g>
   <g id="patch_13">
    <path clip-path="url(#pe932a5fe6b)" d="M 84.808883 273.312 
L 86.42057 273.312 
L 86.42057 259.366737 
L 84.808883 259.366737 
z
" style="fill:#1f77b4;"/>
   </g>
   <g id="patch_14">
    <path clip-path="url(#pe932a5fe6b)" d="M 86.42057 273.312 
L 88.032257 273.312 
L 88.032257 257.547789 
L 86.42057 257.547789 
z
" style="fill:#1f77b4;"/>
   </g>
   <g id="patch_15">
    <path clip-path="url(#pe932a5fe6b)" d="M 88.032257 273.312 
L 89.643945 273.312 
L 89.643945 253.909895 
L 88.032257 253.909895 
z
" style="fill:#1f77b4;"/>
   </g>
   <g id="patch_16">
    <path clip-path="url(#pe932a5fe6b)" d="M 89.643945 273.312 
L 91.255632 273.312 
L 91.255632 251.484632 
L 89.643945 251.484632 
z
" style="fill:#1f77b4;"/>
   </g>
   <g id="patch_17">
    <path clip-path="url(#pe932a5fe6b)" d="M 91.255632 273.312 
L 92.867319 273.312 
L 92.867319 247.846737 
L 91.255632 247.846737 
z
" style="fill:#1f77b4;"/>
   </g>
   <g id="patch_18">
    <path clip-path="url(#pe932a5fe6b)" d="M 92.867319 273.312 
L 94.479006 273.312 
L 94.479006 252.090947 
L 92.867319 252.090947 
z
" style="fill:#1f77b4;"/>
   </g>
   <g id="patch_19">
    <path clip-path="url(#pe932a5fe6b)" d="M 94.479006 273.312 
L 96.090694 273.312 
L 96.090694 255.122526 
L 94.479006 255.122526 
z
" style="fill:#1f77b4;"/>
   </g>
   <g id="patch_20">
    <path clip-path="url(#pe932a5fe6b)" d="M 96.090694 273.312 
L 97.702381 273.312 
L 97.702381 253.303579 
L 96.090694 253.303579 
z
" style="fill:#1f77b4;"/>
   </g>
   <g id="patch_21">
    <path clip-path="url(#pe932a5fe6b)" d="M 97.702381 273.312 
L 99.314068 273.312 
L 99.314068 252.090947 
L 97.702381 252.090947 
z
" style="fill:#1f77b4;"/>
   </g>
   <g id="patch_22">
    <path clip-path="url(#pe932a5fe6b)" d="M 99.314068 273.312 
L 100.925756 273.312 
L 100.925756 256.941474 
L 99.314068 256.941474 
z
" style="fill:#1f77b4;"/>
   </g>
   <g id="patch_23">
    <path clip-path="url(#pe932a5fe6b)" d="M 100.925756 273.312 
L 102.537443 273.312 
L 102.537443 239.964632 
L 100.925756 239.964632 
z
" style="fill:#1f77b4;"/>
   </g>
   <g id="patch_24">
    <path clip-path="url(#pe932a5fe6b)" d="M 102.537443 273.312 
L 104.14913 273.312 
L 104.14913 253.909895 
L 102.537443 253.909895 
z
" style="fill:#1f77b4;"/>
   </g>
   <g id="patch_25">
    <path clip-path="url(#pe932a5fe6b)" d="M 104.14913 273.312 
L 105.760818 273.312 
L 105.760818 247.240421 
L 104.14913 247.240421 
z
" style="fill:#1f77b4;"/>
   </g>
   <g id="patch_26">
    <path clip-path="url(#pe932a5fe6b)" d="M 105.760818 273.312 
L 107.372505 273.312 
L 107.372505 241.177263 
L 105.760818 241.177263 
z
" style="fill:#1f77b4;"/>
   </g>
   <g id="patch_27">
    <path clip-path="url(#pe932a5fe6b)" d="M 107.372505 273.312 
L 108.984192 273.312 
L 108.984192 240.570947 
L 107.372505 240.570947 
z
" style="fill:#1f77b4;"/>
   </g>
   <g id="patch_28">
    <path clip-path="url(#pe932a5fe6b)" d="M 108.984192 273.312 
L 110.59588 273.312 
L 110.59588 241.783579 
L 108.984192 241.783579 
z
" style="fill:#1f77b4;"/>
   </g>
   <g id="patch_29">
    <path clip-path="url(#pe932a5fe6b)" d="M 110.59588 273.312 
L 112.207567 273.312 
L 112.207567 242.389895 
L 110.59588 242.389895 
z
" style="fill:#1f77b4;"/>
   </g>
   <g id="patch_30">
    <path clip-path="url(#pe932a5fe6b)" d="M 112.207567 273.312 
L 113.819254 273.312 
L 113.819254 236.933053 
L 112.207567 236.933053 
z
" style="fill:#1f77b4;"/>
   </g>
   <g id="patch_31">
    <path clip-path="url(#pe932a5fe6b)" d="M 113.819254 273.312 
L 115.430942 273.312 
L 115.430942 242.389895 
L 113.819254 242.389895 
z
" style="fill:#1f77b4;"/>
   </g>
   <g id="patch_32">
    <path clip-path="url(#pe932a5fe6b)" d="M 115.430942 273.312 
L 117.042629 273.312 
L 117.042629 236.933053 
L 115.430942 236.933053 
z
" style="fill:#1f77b4;"/>
   </g>
   <g id="patch_33">
    <path clip-path="url(#pe932a5fe6b)" d="M 117.042629 273.312 
L 118.654316 273.312 
L 118.654316 236.933053 
L 117.042629 236.933053 
z
" style="fill:#1f77b4;"/>
   </g>
   <g id="patch_34">
    <path clip-path="url(#pe932a5fe6b)" d="M 118.654316 273.312 
L 120.266004 273.312 
L 120.266004 236.326737 
L 118.654316 236.326737 
z
" style="fill:#1f77b4;"/>
   </g>
   <g id="patch_35">
    <path clip-path="url(#pe932a5fe6b)" d="M 120.266004 273.312 
L 121.877691 273.312 
L 121.877691 232.082526 
L 120.266004 232.082526 
z
" style="fill:#1f77b4;"/>
   </g>
   <g id="patch_36">
    <path clip-path="url(#pe932a5fe6b)" d="M 121.877691 273.312 
L 123.489378 273.312 
L 123.489378 234.507789 
L 121.877691 234.507789 
z
" style="fill:#1f77b4;"/>
   </g>
   <g id="patch_37">
    <path clip-path="url(#pe932a5fe6b)" d="M 123.489378 273.312 
L 125.101066 273.312 
L 125.101066 234.507789 
L 123.489378 234.507789 
z
" style="fill:#1f77b4;"/>
   </g>
   <g id="patch_38">
    <path clip-path="url(#pe932a5fe6b)" d="M 125.101066 273.312 
L 126.712753 273.312 
L 126.712753 236.326737 
L 125.101066 236.326737 
z
" style="fill:#1f77b4;"/>
   </g>
   <g id="patch_39">
    <path clip-path="url(#pe932a5fe6b)" d="M 126.712753 273.312 
L 128.32444 273.312 
L 128.32444 216.318316 
L 126.712753 216.318316 
z
" style="fill:#1f77b4;"/>
   </g>
   <g id="patch_40">
    <path clip-path="url(#pe932a5fe6b)" d="M 128.32444 273.312 
L 129.936128 273.312 
L 129.936128 232.082526 
L 128.32444 232.082526 
z
" style="fill:#1f77b4;"/>
   </g>
   <g id="patch_41">
    <path clip-path="url(#pe932a5fe6b)" d="M 129.936128 273.312 
L 131.547815 273.312 
L 131.547815 217.530947 
L 129.936128 217.530947 
z
" style="fill:#1f77b4;"/>
   </g>
   <g id="patch_42">
    <path clip-path="url(#pe932a5fe6b)" d="M 131.547815 273.312 
L 133.159502 273.312 
L 133.159502 220.562526 
L 131.547815 220.562526 
z
" style="fill:#1f77b4;"/>
   </g>
   <g id="patch_43">
    <path clip-path="url(#pe932a5fe6b)" d="M 133.159502 273.312 
L 134.77119 273.312 
L 134.77119 224.806737 
L 133.159502 224.806737 
z
" style="fill:#1f77b4;"/>
   </g>
   <g id="patch_44">
    <path clip-path="url(#pe932a5fe6b)" d="M 134.77119 273.312 
L 136.382877 273.312 
L 136.382877 222.987789 
L 134.77119 222.987789 
z
" style="fill:#1f77b4;"/>
   </g>
   <g id="patch_45">
    <path clip-path="url(#pe932a5fe6b)" d="M 136.382877 273.312 
L 137.994564 273.312 
L 137.994564 220.562526 
L 136.382877 220.562526 
z
" style="fill:#1f77b4;"/>
   </g>
   <g id="patch_46">
    <path clip-path="url(#pe932a5fe6b)" d="M 137.994564 273.312 
L 139.606251 273.312 
L 139.606251 214.499368 
L 137.994564 214.499368 
z
" style="fill:#1f77b4;"/>
   </g>
   <g id="patch_47">
    <path clip-path="url(#pe932a5fe6b)" d="M 139.606251 273.312 
L 141.217939 273.312 
L 141.217939 211.467789 
L 139.606251 211.467789 
z
" style="fill:#1f77b4;"/>
   </g>
   <g id="patch_48">
    <path clip-path="url(#pe932a5fe6b)" d="M 141.217939 273.312 
L 142.829626 273.312 
L 142.829626 218.743579 
L 141.217939 218.743579 
z
" style="fill:#1f77b4;"/>
   </g>
   <g id="patch_49">
    <path clip-path="url(#pe932a5fe6b)" d="M 142.829626 273.312 
L 144.441313 273.312 
L 144.441313 218.137263 
L 142.829626 218.137263 
z
" style="fill:#1f77b4;"/>
   </g>
   <g id="patch_50">
    <path clip-path="url(#pe932a5fe6b)" d="M 144.441313 273.312 
L 146.053001 273.312 
L 146.053001 211.467789 
L 144.441313 211.467789 
z
" style="fill:#1f77b4;"/>
   </g>
   <g id="patch_51">
    <path clip-path="url(#pe932a5fe6b)" d="M 146.053001 273.312 
L 147.664688 273.312 
L 147.664688 213.286737 
L 146.053001 213.286737 
z
" style="fill:#1f77b4;"/>
   </g>
   <g id="patch_52">
    <path clip-path="url(#pe932a5fe6b)" d="M 147.664688 273.312 
L 149.276375 273.312 
L 149.276375 217.530947 
L 147.664688 217.530947 
z
" style="fill:#1f77b4;"/>
   </g>
   <g id="patch_53">
    <path clip-path="url(#pe932a5fe6b)" d="M 149.276375 273.312 
L 150.888063 273.312 
L 150.888063 225.413053 
L 149.276375 225.413053 
z
" style="fill:#1f77b4;"/>
   </g>
   <g id="patch_54">
    <path clip-path="url(#pe932a5fe6b)" d="M 150.888063 273.312 
L 152.49975 273.312 
L 152.49975 216.318316 
L 150.888063 216.318316 
z
" style="fill:#1f77b4;"/>
   </g>
   <g id="patch_55">
    <path clip-path="url(#pe932a5fe6b)" d="M 152.49975 273.312 
L 154.111437 273.312 
L 154.111437 208.436211 
L 152.49975 208.436211 
z
" style="fill:#1f77b4;"/>
   </g>
   <g id="patch_56">
    <path clip-path="url(#pe932a5fe6b)" d="M 154.111437 273.312 
L 155.723125 273.312 
L 155.723125 204.798316 
L 154.111437 204.798316 
z
" style="fill:#1f77b4;"/>
   </g>
   <g id="patch_57">
    <path clip-path="url(#pe932a5fe6b)" d="M 155.723125 273.312 
L 157.334812 273.312 
L 157.334812 209.042526 
L 155.723125 209.042526 
z
" style="fill:#1f77b4;"/>
   </g>
   <g id="patch_58">
    <path clip-path="url(#pe932a5fe6b)" d="M 157.334812 273.312 
L 158.946499 273.312 
L 158.946499 199.947789 
L 157.334812 199.947789 
z
" style="fill:#1f77b4;"/>
   </g>
   <g id="patch_59">
    <path clip-path="url(#pe932a5fe6b)" d="M 158.946499 273.312 
L 160.558187 273.312 
L 160.558187 210.861474 
L 158.946499 210.861474 
z
" style="fill:#1f77b4;"/>
   </g>
   <g id="patch_60">
    <path clip-path="url(#pe932a5fe6b)" d="M 160.558187 273.312 
L 162.169874 273.312 
L 162.169874 209.648842 
L 160.558187 209.648842 
z
" style="fill:#1f77b4;"/>
   </g>
   <g id="patch_61">
    <path clip-path="url(#pe932a5fe6b)" d="M 162.169874 273.312 
L 163.781561 273.312 
L 163.781561 201.766737 
L 162.169874 201.766737 
z
" style="fill:#1f77b4;"/>
   </g>
   <g id="patch_62">
    <path clip-path="url(#pe932a5fe6b)" d="M 163.781561 273.312 
L 165.393249 273.312 
L 165.393249 193.884632 
L 163.781561 193.884632 
z
" style="fill:#1f77b4;"/>
   </g>
   <g id="patch_63">
    <path clip-path="url(#pe932a5fe6b)" d="M 165.393249 273.312 
L 167.004936 273.312 
L 167.004936 210.255158 
L 165.393249 210.255158 
z
" style="fill:#1f77b4;"/>
   </g>
   <g id="patch_64">
    <path clip-path="url(#pe932a5fe6b)" d="M 167.004936 273.312 
L 168.616623 273.312 
L 168.616623 195.097263 
L 167.004936 195.097263 
z
" style="fill:#1f77b4;"/>
   </g>
   <g id="patch_65">
    <path clip-path="url(#pe932a5fe6b)" d="M 168.616623 273.312 
L 170.228311 273.312 
L 170.228311 210.861474 
L 168.616623 210.861474 
z
" style="fill:#1f77b4;"/>
   </g>
   <g id="patch_66">
    <path clip-path="url(#pe932a5fe6b)" d="M 170.228311 273.312 
L 171.839998 273.312 
L 171.839998 207.223579 
L 170.228311 207.223579 
z
" style="fill:#1f77b4;"/>
   </g>
   <g id="patch_67">
    <path clip-path="url(#pe932a5fe6b)" d="M 171.839998 273.312 
L 173.451685 273.312 
L 173.451685 185.396211 
L 171.839998 185.396211 
z
" style="fill:#1f77b4;"/>
   </g>
   <g id="patch_68">
    <path clip-path="url(#pe932a5fe6b)" d="M 173.451685 273.312 
L 175.063373 273.312 
L 175.063373 196.916211 
L 173.451685 196.916211 
z
" style="fill:#1f77b4;"/>
   </g>
   <g id="patch_69">
    <path clip-path="url(#pe932a5fe6b)" d="M 175.063373 273.312 
L 176.67506 273.312 
L 176.67506 189.640421 
L 175.063373 189.640421 
z
" style="fill:#1f77b4;"/>
   </g>
   <g id="patch_70">
    <path clip-path="url(#pe932a5fe6b)" d="M 176.67506 273.312 
L 178.286747 273.312 
L 178.286747 185.396211 
L 176.67506 185.396211 
z
" style="fill:#1f77b4;"/>
   </g>
   <g id="patch_71">
    <path clip-path="url(#pe932a5fe6b)" d="M 178.286747 273.312 
L 179.898435 273.312 
L 179.898435 202.373053 
L 178.286747 202.373053 
z
" style="fill:#1f77b4;"/>
   </g>
   <g id="patch_72">
    <path clip-path="url(#pe932a5fe6b)" d="M 179.898435 273.312 
L 181.510122 273.312 
L 181.510122 192.065684 
L 179.898435 192.065684 
z
" style="fill:#1f77b4;"/>
   </g>
   <g id="patch_73">
    <path clip-path="url(#pe932a5fe6b)" d="M 181.510122 273.312 
L 183.121809 273.312 
L 183.121809 189.640421 
L 181.510122 189.640421 
z
" style="fill:#1f77b4;"/>
   </g>
   <g id="patch_74">
    <path clip-path="url(#pe932a5fe6b)" d="M 183.121809 273.312 
L 184.733496 273.312 
L 184.733496 181.152 
L 183.121809 181.152 
z
" style="fill:#1f77b4;"/>
   </g>
   <g id="patch_75">
    <path clip-path="url(#pe932a5fe6b)" d="M 184.733496 273.312 
L 186.345184 273.312 
L 186.345184 170.238316 
L 184.733496 170.238316 
z
" style="fill:#1f77b4;"/>
   </g>
   <g id="patch_76">
    <path clip-path="url(#pe932a5fe6b)" d="M 186.345184 273.312 
L 187.956871 273.312 
L 187.956871 196.309895 
L 186.345184 196.309895 
z
" style="fill:#1f77b4;"/>
   </g>
   <g id="patch_77">
    <path clip-path="url(#pe932a5fe6b)" d="M 187.956871 273.312 
L 189.568558 273.312 
L 189.568558 193.278316 
L 187.956871 193.278316 
z
" style="fill:#1f77b4;"/>
   </g>
   <g id="patch_78">
    <path clip-path="url(#pe932a5fe6b)" d="M 189.568558 273.312 
L 191.180246 273.312 
L 191.180246 210.861474 
L 189.568558 210.861474 
z
" style="fill:#1f77b4;"/>
   </g>
   <g id="patch_79">
    <path clip-path="url(#pe932a5fe6b)" d="M 191.180246 273.312 
L 192.791933 273.312 
L 192.791933 172.663579 
L 191.180246 172.663579 
z
" style="fill:#1f77b4;"/>
   </g>
   <g id="patch_80">
    <path clip-path="url(#pe932a5fe6b)" d="M 192.791933 273.312 
L 194.40362 273.312 
L 194.40362 176.907789 
L 192.791933 176.907789 
z
" style="fill:#1f77b4;"/>
   </g>
   <g id="patch_81">
    <path clip-path="url(#pe932a5fe6b)" d="M 194.40362 273.312 
L 196.015308 273.312 
L 196.015308 176.907789 
L 194.40362 176.907789 
z
" style="fill:#1f77b4;"/>
   </g>
   <g id="patch_82">
    <path clip-path="url(#pe932a5fe6b)" d="M 196.015308 273.312 
L 197.626995 273.312 
L 197.626995 186.608842 
L 196.015308 186.608842 
z
" style="fill:#1f77b4;"/>
   </g>
   <g id="patch_83">
    <path clip-path="url(#pe932a5fe6b)" d="M 197.626995 273.312 
L 199.238682 273.312 
L 199.238682 184.789895 
L 197.626995 184.789895 
z
" style="fill:#1f77b4;"/>
   </g>
   <g id="patch_84">
    <path clip-path="url(#pe932a5fe6b)" d="M 199.238682 273.312 
L 200.85037 273.312 
L 200.85037 175.088842 
L 199.238682 175.088842 
z
" style="fill:#1f77b4;"/>
   </g>
   <g id="patch_85">
    <path clip-path="url(#pe932a5fe6b)" d="M 200.85037 273.312 
L 202.462057 273.312 
L 202.462057 179.939368 
L 200.85037 179.939368 
z
" style="fill:#1f77b4;"/>
   </g>
   <g id="patch_86">
    <path clip-path="url(#pe932a5fe6b)" d="M 202.462057 273.312 
L 204.073744 273.312 
L 204.073744 159.930947 
L 202.462057 159.930947 
z
" style="fill:#1f77b4;"/>
   </g>
   <g id="patch_87">
    <path clip-path="url(#pe932a5fe6b)" d="M 204.073744 273.312 
L 205.685432 273.312 
L 205.685432 160.537263 
L 204.073744 160.537263 
z
" style="fill:#1f77b4;"/>
   </g>
   <g id="patch_88">
    <path clip-path="url(#pe932a5fe6b)" d="M 205.685432 273.312 
L 207.297119 273.312 
L 207.297119 168.419368 
L 205.685432 168.419368 
z
" style="fill:#1f77b4;"/>
   </g>
   <g id="patch_89">
    <path clip-path="url(#pe932a5fe6b)" d="M 207.297119 273.312 
L 208.908806 273.312 
L 208.908806 172.663579 
L 207.297119 172.663579 
z
" style="fill:#1f77b4;"/>
   </g>
   <g id="patch_90">
    <path clip-path="url(#pe932a5fe6b)" d="M 208.908806 273.312 
L 210.520494 273.312 
L 210.520494 170.844632 
L 208.908806 170.844632 
z
" style="fill:#1f77b4;"/>
   </g>
   <g id="patch_91">
    <path clip-path="url(#pe932a5fe6b)" d="M 210.520494 273.312 
L 212.132181 273.312 
L 212.132181 156.899368 
L 210.520494 156.899368 
z
" style="fill:#1f77b4;"/>
   </g>
   <g id="patch_92">
    <path clip-path="url(#pe932a5fe6b)" d="M 212.132181 273.312 
L 213.743868 273.312 
L 213.743868 158.718316 
L 212.132181 158.718316 
z
" style="fill:#1f77b4;"/>
   </g>
   <g id="patch_93">
    <path clip-path="url(#pe932a5fe6b)" d="M 213.743868 273.312 
L 215.355556 273.312 
L 215.355556 160.537263 
L 213.743868 160.537263 
z
" style="fill:#1f77b4;"/>
   </g>
   <g id="patch_94">
    <path clip-path="url(#pe932a5fe6b)" d="M 215.355556 273.312 
L 216.967243 273.312 
L 216.967243 173.269895 
L 215.355556 173.269895 
z
" style="fill:#1f77b4;"/>
   </g>
   <g id="patch_95">
    <path clip-path="url(#pe932a5fe6b)" d="M 216.967243 273.312 
L 218.57893 273.312 
L 218.57893 170.844632 
L 216.967243 170.844632 
z
" style="fill:#1f77b4;"/>
   </g>
   <g id="patch_96">
    <path clip-path="url(#pe932a5fe6b)" d="M 218.57893 273.312 
L 220.190618 273.312 
L 220.190618 133.859368 
L 218.57893 133.859368 
z
" style="fill:#1f77b4;"/>
   </g>
   <g id="patch_97">
    <path clip-path="url(#pe932a5fe6b)" d="M 220.190618 273.312 
L 221.802305 273.312 
L 221.802305 149.017263 
L 220.190618 149.017263 
z
" style="fill:#1f77b4;"/>
   </g>
   <g id="patch_98">
    <path clip-path="url(#pe932a5fe6b)" d="M 221.802305 273.312 
L 223.413992 273.312 
L 223.413992 147.198316 
L 221.802305 147.198316 
z
" style="fill:#1f77b4;"/>
   </g>
   <g id="patch_99">
    <path clip-path="url(#pe932a5fe6b)" d="M 223.413992 273.312 
L 225.025679 273.312 
L 225.025679 156.293053 
L 223.413992 156.293053 
z
" style="fill:#1f77b4;"/>
   </g>
   <g id="patch_100">
    <path clip-path="url(#pe932a5fe6b)" d="M 225.025679 273.312 
L 226.637367 273.312 
L 226.637367 148.410947 
L 225.025679 148.410947 
z
" style="fill:#1f77b4;"/>
   </g>
   <g id="patch_101">
    <path clip-path="url(#pe932a5fe6b)" d="M 226.637367 273.312 
L 228.249054 273.312 
L 228.249054 174.482526 
L 226.637367 174.482526 
z
" style="fill:#1f77b4;"/>
   </g>
   <g id="patch_102">
    <path clip-path="url(#pe932a5fe6b)" d="M 228.249054 273.312 
L 229.860741 273.312 
L 229.860741 141.135158 
L 228.249054 141.135158 
z
" style="fill:#1f77b4;"/>
   </g>
   <g id="patch_103">
    <path clip-path="url(#pe932a5fe6b)" d="M 229.860741 273.312 
L 231.472429 273.312 
L 231.472429 153.261474 
L 229.860741 153.261474 
z
" style="fill:#1f77b4;"/>
   </g>
   <g id="patch_104">
    <path clip-path="url(#pe932a5fe6b)" d="M 231.472429 273.312 
L 233.084116 273.312 
L 233.084116 152.655158 
L 231.472429 152.655158 
z
" style="fill:#1f77b4;"/>
   </g>
   <g id="patch_105">
    <path clip-path="url(#pe932a5fe6b)" d="M 233.084116 273.312 
L 234.695803 273.312 
L 234.695803 160.537263 
L 233.084116 160.537263 
z
" style="fill:#1f77b4;"/>
   </g>
   <g id="patch_106">
    <path clip-path="url(#pe932a5fe6b)" d="M 234.695803 273.312 
L 236.307491 273.312 
L 236.307491 138.709895 
L 234.695803 138.709895 
z
" style="fill:#1f77b4;"/>
   </g>
   <g id="patch_107">
    <path clip-path="url(#pe932a5fe6b)" d="M 236.307491 273.312 
L 237.919178 273.312 
L 237.919178 132.646737 
L 236.307491 132.646737 
z
" style="fill:#1f77b4;"/>
   </g>
   <g id="patch_108">
    <path clip-path="url(#pe932a5fe6b)" d="M 237.919178 273.312 
L 239.530865 273.312 
L 239.530865 150.229895 
L 237.919178 150.229895 
z
" style="fill:#1f77b4;"/>
   </g>
   <g id="patch_109">
    <path clip-path="url(#pe932a5fe6b)" d="M 239.530865 273.312 
L 241.142553 273.312 
L 241.142553 146.592 
L 239.530865 146.592 
z
" style="fill:#1f77b4;"/>
   </g>
   <g id="patch_110">
    <path clip-path="url(#pe932a5fe6b)" d="M 241.142553 273.312 
L 242.75424 273.312 
L 242.75424 152.048842 
L 241.142553 152.048842 
z
" style="fill:#1f77b4;"/>
   </g>
   <g id="patch_111">
    <path clip-path="url(#pe932a5fe6b)" d="M 242.75424 273.312 
L 244.365927 273.312 
L 244.365927 143.560421 
L 242.75424 143.560421 
z
" style="fill:#1f77b4;"/>
   </g>
   <g id="patch_112">
    <path clip-path="url(#pe932a5fe6b)" d="M 244.365927 273.312 
L 245.977615 273.312 
L 245.977615 142.347789 
L 244.365927 142.347789 
z
" style="fill:#1f77b4;"/>
   </g>
   <g id="patch_113">
    <path clip-path="url(#pe932a5fe6b)" d="M 245.977615 273.312 
L 247.589302 273.312 
L 247.589302 115.063579 
L 245.977615 115.063579 
z
" style="fill:#1f77b4;"/>
   </g>
   <g id="patch_114">
    <path clip-path="url(#pe932a5fe6b)" d="M 247.589302 273.312 
L 249.200989 273.312 
L 249.200989 124.764632 
L 247.589302 124.764632 
z
" style="fill:#1f77b4;"/>
   </g>
   <g id="patch_115">
    <path clip-path="url(#pe932a5fe6b)" d="M 249.200989 273.312 
L 250.812677 273.312 
L 250.812677 132.040421 
L 249.200989 132.040421 
z
" style="fill:#1f77b4;"/>
   </g>
   <g id="patch_116">
    <path clip-path="url(#pe932a5fe6b)" d="M 250.812677 273.312 
L 252.424364 273.312 
L 252.424364 133.253053 
L 250.812677 133.253053 
z
" style="fill:#1f77b4;"/>
   </g>
   <g id="patch_117">
    <path clip-path="url(#pe932a5fe6b)" d="M 252.424364 273.312 
L 254.036051 273.312 
L 254.036051 132.040421 
L 252.424364 132.040421 
z
" style="fill:#1f77b4;"/>
   </g>
   <g id="patch_118">
    <path clip-path="url(#pe932a5fe6b)" d="M 254.036051 273.312 
L 255.647739 273.312 
L 255.647739 144.773053 
L 254.036051 144.773053 
z
" style="fill:#1f77b4;"/>
   </g>
   <g id="patch_119">
    <path clip-path="url(#pe932a5fe6b)" d="M 255.647739 273.312 
L 257.259426 273.312 
L 257.259426 143.560421 
L 255.647739 143.560421 
z
" style="fill:#1f77b4;"/>
   </g>
   <g id="patch_120">
    <path clip-path="url(#pe932a5fe6b)" d="M 257.259426 273.312 
L 258.871113 273.312 
L 258.871113 128.402526 
L 257.259426 128.402526 
z
" style="fill:#1f77b4;"/>
   </g>
   <g id="patch_121">
    <path clip-path="url(#pe932a5fe6b)" d="M 258.871113 273.312 
L 260.482801 273.312 
L 260.482801 109.000421 
L 258.871113 109.000421 
z
" style="fill:#1f77b4;"/>
   </g>
   <g id="patch_122">
    <path clip-path="url(#pe932a5fe6b)" d="M 260.482801 273.312 
L 262.094488 273.312 
L 262.094488 118.701474 
L 260.482801 118.701474 
z
" style="fill:#1f77b4;"/>
   </g>
   <g id="patch_123">
    <path clip-path="url(#pe932a5fe6b)" d="M 262.094488 273.312 
L 263.706175 273.312 
L 263.706175 123.552 
L 262.094488 123.552 
z
" style="fill:#1f77b4;"/>
   </g>
   <g id="patch_124">
    <path clip-path="url(#pe932a5fe6b)" d="M 263.706175 273.312 
L 265.317863 273.312 
L 265.317863 127.796211 
L 263.706175 127.796211 
z
" style="fill:#1f77b4;"/>
   </g>
   <g id="patch_125">
    <path clip-path="url(#pe932a5fe6b)" d="M 265.317863 273.312 
L 266.92955 273.312 
L 266.92955 119.307789 
L 265.317863 119.307789 
z
" style="fill:#1f77b4;"/>
   </g>
   <g id="patch_126">
    <path clip-path="url(#pe932a5fe6b)" d="M 266.92955 273.312 
L 268.541237 273.312 
L 268.541237 138.709895 
L 266.92955 138.709895 
z
" style="fill:#1f77b4;"/>
   </g>
   <g id="patch_127">
    <path clip-path="url(#pe932a5fe6b)" d="M 268.541237 273.312 
L 270.152924 273.312 
L 270.152924 112.638316 
L 268.541237 112.638316 
z
" style="fill:#1f77b4;"/>
   </g>
   <g id="patch_128">
    <path clip-path="url(#pe932a5fe6b)" d="M 270.152924 273.312 
L 271.764612 273.312 
L 271.764612 104.149895 
L 270.152924 104.149895 
z
" style="fill:#1f77b4;"/>
   </g>
   <g id="patch_129">
    <path clip-path="url(#pe932a5fe6b)" d="M 271.764612 273.312 
L 273.376299 273.312 
L 273.376299 88.385684 
L 271.764612 88.385684 
z
" style="fill:#1f77b4;"/>
   </g>
   <g id="patch_130">
    <path clip-path="url(#pe932a5fe6b)" d="M 273.376299 273.312 
L 274.987986 273.312 
L 274.987986 128.402526 
L 273.376299 128.402526 
z
" style="fill:#1f77b4;"/>
   </g>
   <g id="patch_131">
    <path clip-path="url(#pe932a5fe6b)" d="M 274.987986 273.312 
L 276.599674 273.312 
L 276.599674 107.787789 
L 274.987986 107.787789 
z
" style="fill:#1f77b4;"/>
   </g>
   <g id="patch_132">
    <path clip-path="url(#pe932a5fe6b)" d="M 276.599674 273.312 
L 278.211361 273.312 
L 278.211361 112.032 
L 276.599674 112.032 
z
" style="fill:#1f77b4;"/>
   </g>
   <g id="patch_133">
    <path clip-path="url(#pe932a5fe6b)" d="M 278.211361 273.312 
L 279.823048 273.312 
L 279.823048 104.149895 
L 278.211361 104.149895 
z
" style="fill:#1f77b4;"/>
   </g>
   <g id="patch_134">
    <path clip-path="url(#pe932a5fe6b)" d="M 279.823048 273.312 
L 281.434736 273.312 
L 281.434736 93.842526 
L 279.823048 93.842526 
z
" style="fill:#1f77b4;"/>
   </g>
   <g id="patch_135">
    <path clip-path="url(#pe932a5fe6b)" d="M 281.434736 273.312 
L 283.046423 273.312 
L 283.046423 104.149895 
L 281.434736 104.149895 
z
" style="fill:#1f77b4;"/>
   </g>
   <g id="patch_136">
    <path clip-path="url(#pe932a5fe6b)" d="M 283.046423 273.312 
L 284.65811 273.312 
L 284.65811 121.733053 
L 283.046423 121.733053 
z
" style="fill:#1f77b4;"/>
   </g>
   <g id="patch_137">
    <path clip-path="url(#pe932a5fe6b)" d="M 284.65811 273.312 
L 286.269798 273.312 
L 286.269798 112.638316 
L 284.65811 112.638316 
z
" style="fill:#1f77b4;"/>
   </g>
   <g id="patch_138">
    <path clip-path="url(#pe932a5fe6b)" d="M 286.269798 273.312 
L 287.881485 273.312 
L 287.881485 110.213053 
L 286.269798 110.213053 
z
" style="fill:#1f77b4;"/>
   </g>
   <g id="patch_139">
    <path clip-path="url(#pe932a5fe6b)" d="M 287.881485 273.312 
L 289.493172 273.312 
L 289.493172 121.733053 
L 287.881485 121.733053 
z
" style="fill:#1f77b4;"/>
   </g>
   <g id="patch_140">
    <path clip-path="url(#pe932a5fe6b)" d="M 289.493172 273.312 
L 291.10486 273.312 
L 291.10486 109.606737 
L 289.493172 109.606737 
z
" style="fill:#1f77b4;"/>
   </g>
   <g id="patch_141">
    <path clip-path="url(#pe932a5fe6b)" d="M 291.10486 273.312 
L 292.716547 273.312 
L 292.716547 94.448842 
L 291.10486 94.448842 
z
" style="fill:#1f77b4;"/>
   </g>
   <g id="patch_142">
    <path clip-path="url(#pe932a5fe6b)" d="M 292.716547 273.312 
L 294.328234 273.312 
L 294.328234 85.960421 
L 292.716547 85.960421 
z
" style="fill:#1f77b4;"/>
   </g>
   <g id="patch_143">
    <path clip-path="url(#pe932a5fe6b)" d="M 294.328234 273.312 
L 295.939922 273.312 
L 295.939922 99.299368 
L 294.328234 99.299368 
z
" style="fill:#1f77b4;"/>
   </g>
   <g id="patch_144">
    <path clip-path="url(#pe932a5fe6b)" d="M 295.939922 273.312 
L 297.551609 273.312 
L 297.551609 106.575158 
L 295.939922 106.575158 
z
" style="fill:#1f77b4;"/>
   </g>
   <g id="patch_145">
    <path clip-path="url(#pe932a5fe6b)" d="M 297.551609 273.312 
L 299.163296 273.312 
L 299.163296 113.244632 
L 297.551609 113.244632 
z
" style="fill:#1f77b4;"/>
   </g>
   <g id="patch_146">
    <path clip-path="url(#pe932a5fe6b)" d="M 299.163296 273.312 
L 300.774984 273.312 
L 300.774984 103.543579 
L 299.163296 103.543579 
z
" style="fill:#1f77b4;"/>
   </g>
   <g id="patch_147">
    <path clip-path="url(#pe932a5fe6b)" d="M 300.774984 273.312 
L 302.386671 273.312 
L 302.386671 98.086737 
L 300.774984 98.086737 
z
" style="fill:#1f77b4;"/>
   </g>
   <g id="patch_148">
    <path clip-path="url(#pe932a5fe6b)" d="M 302.386671 273.312 
L 303.998358 273.312 
L 303.998358 96.874105 
L 302.386671 96.874105 
z
" style="fill:#1f77b4;"/>
   </g>
   <g id="patch_149">
    <path clip-path="url(#pe932a5fe6b)" d="M 303.998358 273.312 
L 305.610046 273.312 
L 305.610046 111.425684 
L 303.998358 111.425684 
z
" style="fill:#1f77b4;"/>
   </g>
   <g id="patch_150">
    <path clip-path="url(#pe932a5fe6b)" d="M 305.610046 273.312 
L 307.221733 273.312 
L 307.221733 87.173053 
L 305.610046 87.173053 
z
" style="fill:#1f77b4;"/>
   </g>
   <g id="patch_151">
    <path clip-path="url(#pe932a5fe6b)" d="M 307.221733 273.312 
L 308.83342 273.312 
L 308.83342 73.834105 
L 307.221733 73.834105 
z
" style="fill:#1f77b4;"/>
   </g>
   <g id="patch_152">
    <path clip-path="url(#pe932a5fe6b)" d="M 308.83342 273.312 
L 310.445108 273.312 
L 310.445108 87.173053 
L 308.83342 87.173053 
z
" style="fill:#1f77b4;"/>
   </g>
   <g id="patch_153">
    <path clip-path="url(#pe932a5fe6b)" d="M 310.445108 273.312 
L 312.056795 273.312 
L 312.056795 95.055158 
L 310.445108 95.055158 
z
" style="fill:#1f77b4;"/>
   </g>
   <g id="patch_154">
    <path clip-path="url(#pe932a5fe6b)" d="M 312.056795 273.312 
L 313.668482 273.312 
L 313.668482 93.236211 
L 312.056795 93.236211 
z
" style="fill:#1f77b4;"/>
   </g>
   <g id="patch_155">
    <path clip-path="url(#pe932a5fe6b)" d="M 313.668482 273.312 
L 315.280169 273.312 
L 315.280169 85.354105 
L 313.668482 85.354105 
z
" style="fill:#1f77b4;"/>
   </g>
   <g id="patch_156">
    <path clip-path="url(#pe932a5fe6b)" d="M 315.280169 273.312 
L 316.891857 273.312 
L 316.891857 91.417263 
L 315.280169 91.417263 
z
" style="fill:#1f77b4;"/>
   </g>
   <g id="patch_157">
    <path clip-path="url(#pe932a5fe6b)" d="M 316.891857 273.312 
L 318.503544 273.312 
L 318.503544 80.503579 
L 316.891857 80.503579 
z
" style="fill:#1f77b4;"/>
   </g>
   <g id="patch_158">
    <path clip-path="url(#pe932a5fe6b)" d="M 318.503544 273.312 
L 320.115231 273.312 
L 320.115231 81.109895 
L 318.503544 81.109895 
z
" style="fill:#1f77b4;"/>
   </g>
   <g id="patch_159">
    <path clip-path="url(#pe932a5fe6b)" d="M 320.115231 273.312 
L 321.726919 273.312 
L 321.726919 98.693053 
L 320.115231 98.693053 
z
" style="fill:#1f77b4;"/>
   </g>
   <g id="patch_160">
    <path clip-path="url(#pe932a5fe6b)" d="M 321.726919 273.312 
L 323.338606 273.312 
L 323.338606 96.874105 
L 321.726919 96.874105 
z
" style="fill:#1f77b4;"/>
   </g>
   <g id="patch_161">
    <path clip-path="url(#pe932a5fe6b)" d="M 323.338606 273.312 
L 324.950293 273.312 
L 324.950293 80.503579 
L 323.338606 80.503579 
z
" style="fill:#1f77b4;"/>
   </g>
   <g id="patch_162">
    <path clip-path="url(#pe932a5fe6b)" d="M 324.950293 273.312 
L 326.561981 273.312 
L 326.561981 84.747789 
L 324.950293 84.747789 
z
" style="fill:#1f77b4;"/>
   </g>
   <g id="patch_163">
    <path clip-path="url(#pe932a5fe6b)" d="M 326.561981 273.312 
L 328.173668 273.312 
L 328.173668 87.779368 
L 326.561981 87.779368 
z
" style="fill:#1f77b4;"/>
   </g>
   <g id="patch_164">
    <path clip-path="url(#pe932a5fe6b)" d="M 328.173668 273.312 
L 329.785355 273.312 
L 329.785355 82.928842 
L 328.173668 82.928842 
z
" style="fill:#1f77b4;"/>
   </g>
   <g id="patch_165">
    <path clip-path="url(#pe932a5fe6b)" d="M 329.785355 273.312 
L 331.397043 273.312 
L 331.397043 87.173053 
L 329.785355 87.173053 
z
" style="fill:#1f77b4;"/>
   </g>
   <g id="patch_166">
    <path clip-path="url(#pe932a5fe6b)" d="M 331.397043 273.312 
L 333.00873 273.312 
L 333.00873 50.794105 
L 331.397043 50.794105 
z
" style="fill:#1f77b4;"/>
   </g>
   <g id="patch_167">
    <path clip-path="url(#pe932a5fe6b)" d="M 333.00873 273.312 
L 334.620417 273.312 
L 334.620417 85.960421 
L 333.00873 85.960421 
z
" style="fill:#1f77b4;"/>
   </g>
   <g id="patch_168">
    <path clip-path="url(#pe932a5fe6b)" d="M 334.620417 273.312 
L 336.232105 273.312 
L 336.232105 86.566737 
L 334.620417 86.566737 
z
" style="fill:#1f77b4;"/>
   </g>
   <g id="patch_169">
    <path clip-path="url(#pe932a5fe6b)" d="M 336.232105 273.312 
L 337.843792 273.312 
L 337.843792 76.865684 
L 336.232105 76.865684 
z
" style="fill:#1f77b4;"/>
   </g>
   <g id="patch_170">
    <path clip-path="url(#pe932a5fe6b)" d="M 337.843792 273.312 
L 339.455479 273.312 
L 339.455479 78.078316 
L 337.843792 78.078316 
z
" style="fill:#1f77b4;"/>
   </g>
   <g id="patch_171">
    <path clip-path="url(#pe932a5fe6b)" d="M 339.455479 273.312 
L 341.067167 273.312 
L 341.067167 76.259368 
L 339.455479 76.259368 
z
" style="fill:#1f77b4;"/>
   </g>
   <g id="patch_172">
    <path clip-path="url(#pe932a5fe6b)" d="M 341.067167 273.312 
L 342.678854 273.312 
L 342.678854 80.503579 
L 341.067167 80.503579 
z
" style="fill:#1f77b4;"/>
   </g>
   <g id="patch_173">
    <path clip-path="url(#pe932a5fe6b)" d="M 342.678854 273.312 
L 344.290541 273.312 
L 344.290541 65.952 
L 342.678854 65.952 
z
" style="fill:#1f77b4;"/>
   </g>
   <g id="patch_174">
    <path clip-path="url(#pe932a5fe6b)" d="M 344.290541 273.312 
L 345.902229 273.312 
L 345.902229 71.408842 
L 344.290541 71.408842 
z
" style="fill:#1f77b4;"/>
   </g>
   <g id="patch_175">
    <path clip-path="url(#pe932a5fe6b)" d="M 345.902229 273.312 
L 347.513916 273.312 
L 347.513916 76.865684 
L 345.902229 76.865684 
z
" style="fill:#1f77b4;"/>
   </g>
   <g id="patch_176">
    <path clip-path="url(#pe932a5fe6b)" d="M 347.513916 273.312 
L 349.125603 273.312 
L 349.125603 61.707789 
L 347.513916 61.707789 
z
" style="fill:#1f77b4;"/>
   </g>
   <g id="patch_177">
    <path clip-path="url(#pe932a5fe6b)" d="M 349.125603 273.312 
L 350.737291 273.312 
L 350.737291 71.408842 
L 349.125603 71.408842 
z
" style="fill:#1f77b4;"/>
   </g>
   <g id="patch_178">
    <path clip-path="url(#pe932a5fe6b)" d="M 350.737291 273.312 
L 352.348978 273.312 
L 352.348978 57.463579 
L 350.737291 57.463579 
z
" style="fill:#1f77b4;"/>
   </g>
   <g id="patch_179">
    <path clip-path="url(#pe932a5fe6b)" d="M 352.348978 273.312 
L 353.960665 273.312 
L 353.960665 68.377263 
L 352.348978 68.377263 
z
" style="fill:#1f77b4;"/>
   </g>
   <g id="patch_180">
    <path clip-path="url(#pe932a5fe6b)" d="M 353.960665 273.312 
L 355.572353 273.312 
L 355.572353 49.581474 
L 353.960665 49.581474 
z
" style="fill:#1f77b4;"/>
   </g>
   <g id="patch_181">
    <path clip-path="url(#pe932a5fe6b)" d="M 355.572353 273.312 
L 357.18404 273.312 
L 357.18404 68.983579 
L 355.572353 68.983579 
z
" style="fill:#1f77b4;"/>
   </g>
   <g id="patch_182">
    <path clip-path="url(#pe932a5fe6b)" d="M 357.18404 273.312 
L 358.795727 273.312 
L 358.795727 47.762526 
L 357.18404 47.762526 
z
" style="fill:#1f77b4;"/>
   </g>
   <g id="patch_183">
    <path clip-path="url(#pe932a5fe6b)" d="M 358.795727 273.312 
L 360.407414 273.312 
L 360.407414 61.707789 
L 358.795727 61.707789 
z
" style="fill:#1f77b4;"/>
   </g>
   <g id="patch_184">
    <path clip-path="url(#pe932a5fe6b)" d="M 360.407414 273.312 
L 362.019102 273.312 
L 362.019102 65.345684 
L 360.407414 65.345684 
z
" style="fill:#1f77b4;"/>
   </g>
   <g id="patch_185">
    <path clip-path="url(#pe932a5fe6b)" d="M 362.019102 273.312 
L 363.630789 273.312 
L 363.630789 45.337263 
L 362.019102 45.337263 
z
" style="fill:#1f77b4;"/>
   </g>
   <g id="patch_186">
    <path clip-path="url(#pe932a5fe6b)" d="M 363.630789 273.312 
L 365.242476 273.312 
L 365.242476 50.187789 
L 363.630789 50.187789 
z
" style="fill:#1f77b4;"/>
   </g>
   <g id="patch_187">
    <path clip-path="url(#pe932a5fe6b)" d="M 365.242476 273.312 
L 366.854164 273.312 
L 366.854164 42.305684 
L 365.242476 42.305684 
z
" style="fill:#1f77b4;"/>
   </g>
   <g id="patch_188">
    <path clip-path="url(#pe932a5fe6b)" d="M 366.854164 273.312 
L 368.465851 273.312 
L 368.465851 60.495158 
L 366.854164 60.495158 
z
" style="fill:#1f77b4;"/>
   </g>
   <g id="patch_189">
    <path clip-path="url(#pe932a5fe6b)" d="M 368.465851 273.312 
L 370.077538 273.312 
L 370.077538 61.101474 
L 368.465851 61.101474 
z
" style="fill:#1f77b4;"/>
   </g>
   <g id="patch_190">
    <path clip-path="url(#pe932a5fe6b)" d="M 370.077538 273.312 
L 371.689226 273.312 
L 371.689226 41.699368 
L 370.077538 41.699368 
z
" style="fill:#1f77b4;"/>
   </g>
   <g id="patch_191">
    <path clip-path="url(#pe932a5fe6b)" d="M 371.689226 273.312 
L 373.300913 273.312 
L 373.300913 47.762526 
L 371.689226 47.762526 
z
" style="fill:#1f77b4;"/>
   </g>
   <g id="patch_192">
    <path clip-path="url(#pe932a5fe6b)" d="M 373.300913 273.312 
L 374.9126 273.312 
L 374.9126 24.116211 
L 373.300913 24.116211 
z
" style="fill:#1f77b4;"/>
   </g>
   <g id="patch_193">
    <path clip-path="url(#pe932a5fe6b)" d="M 374.9126 273.312 
L 376.524288 273.312 
L 376.524288 62.314105 
L 374.9126 62.314105 
z
" style="fill:#1f77b4;"/>
   </g>
   <g id="patch_194">
    <path clip-path="url(#pe932a5fe6b)" d="M 376.524288 273.312 
L 378.135975 273.312 
L 378.135975 27.754105 
L 376.524288 27.754105 
z
" style="fill:#1f77b4;"/>
   </g>
   <g id="patch_195">
    <path clip-path="url(#pe932a5fe6b)" d="M 378.135975 273.312 
L 379.747662 273.312 
L 379.747662 24.116211 
L 378.135975 24.116211 
z
" style="fill:#1f77b4;"/>
   </g>
   <g id="patch_196">
    <path clip-path="url(#pe932a5fe6b)" d="M 379.747662 273.312 
L 381.35935 273.312 
L 381.35935 47.156211 
L 379.747662 47.156211 
z
" style="fill:#1f77b4;"/>
   </g>
   <g id="patch_197">
    <path clip-path="url(#pe932a5fe6b)" d="M 381.35935 273.312 
L 382.971037 273.312 
L 382.971037 38.061474 
L 381.35935 38.061474 
z
" style="fill:#1f77b4;"/>
   </g>
   <g id="patch_198">
    <path clip-path="url(#pe932a5fe6b)" d="M 382.971037 273.312 
L 384.582724 273.312 
L 384.582724 41.093053 
L 382.971037 41.093053 
z
" style="fill:#1f77b4;"/>
   </g>
   <g id="patch_199">
    <path clip-path="url(#pe932a5fe6b)" d="M 384.582724 273.312 
L 386.194412 273.312 
L 386.194412 19.872 
L 384.582724 19.872 
z
" style="fill:#1f77b4;"/>
   </g>
   <g id="patch_200">
    <path clip-path="url(#pe932a5fe6b)" d="M 386.194412 273.312 
L 387.806099 273.312 
L 387.806099 36.242526 
L 386.194412 36.242526 
z
" style="fill:#1f77b4;"/>
   </g>
   <g id="patch_201">
    <path clip-path="url(#pe932a5fe6b)" d="M 387.806099 273.312 
L 389.417786 273.312 
L 389.417786 65.345684 
L 387.806099 65.345684 
z
" style="fill:#1f77b4;"/>
   </g>
   <g id="patch_202">
    <path clip-path="url(#pe932a5fe6b)" d="M 389.417786 273.312 
L 391.029474 273.312 
L 391.029474 24.116211 
L 389.417786 24.116211 
z
" style="fill:#1f77b4;"/>
   </g>
   <g id="matplotlib.axis_1">
    <g id="xtick_1">
     <g id="line2d_1">
      <defs>
       <path d="M 0 0 
L 0 3.5 
" id="m3001534fc4" style="stroke:#000000;stroke-width:0.8;"/>
      </defs>
      <g>
       <use style="stroke:#000000;stroke-width:0.8;" x="66.376477" xlink:href="#m3001534fc4" y="273.312"/>
      </g>
     </g>
     <g id="text_1">
      <!-- 0.0 -->
      <g transform="translate(58.424915 287.910437)scale(0.1 -0.1)">
       <defs>
        <path d="M 2034 4250 
Q 1547 4250 1301 3770 
Q 1056 3291 1056 2328 
Q 1056 1369 1301 889 
Q 1547 409 2034 409 
Q 2525 409 2770 889 
Q 3016 1369 3016 2328 
Q 3016 3291 2770 3770 
Q 2525 4250 2034 4250 
z
M 2034 4750 
Q 2819 4750 3233 4129 
Q 3647 3509 3647 2328 
Q 3647 1150 3233 529 
Q 2819 -91 2034 -91 
Q 1250 -91 836 529 
Q 422 1150 422 2328 
Q 422 3509 836 4129 
Q 1250 4750 2034 4750 
z
" id="DejaVuSans-30" transform="scale(0.015625)"/>
        <path d="M 684 794 
L 1344 794 
L 1344 0 
L 684 0 
L 684 794 
z
" id="DejaVuSans-2e" transform="scale(0.015625)"/>
       </defs>
       <use xlink:href="#DejaVuSans-30"/>
       <use x="63.623047" xlink:href="#DejaVuSans-2e"/>
       <use x="95.410156" xlink:href="#DejaVuSans-30"/>
      </g>
     </g>
    </g>
    <g id="xtick_2">
     <g id="line2d_2">
      <g>
       <use style="stroke:#000000;stroke-width:0.8;" x="131.307386" xlink:href="#m3001534fc4" y="273.312"/>
      </g>
     </g>
     <g id="text_2">
      <!-- 0.2 -->
      <g transform="translate(123.355824 287.910437)scale(0.1 -0.1)">
       <defs>
        <path d="M 1228 531 
L 3431 531 
L 3431 0 
L 469 0 
L 469 531 
Q 828 903 1448 1529 
Q 2069 2156 2228 2338 
Q 2531 2678 2651 2914 
Q 2772 3150 2772 3378 
Q 2772 3750 2511 3984 
Q 2250 4219 1831 4219 
Q 1534 4219 1204 4116 
Q 875 4013 500 3803 
L 500 4441 
Q 881 4594 1212 4672 
Q 1544 4750 1819 4750 
Q 2544 4750 2975 4387 
Q 3406 4025 3406 3419 
Q 3406 3131 3298 2873 
Q 3191 2616 2906 2266 
Q 2828 2175 2409 1742 
Q 1991 1309 1228 531 
z
" id="DejaVuSans-32" transform="scale(0.015625)"/>
       </defs>
       <use xlink:href="#DejaVuSans-30"/>
       <use x="63.623047" xlink:href="#DejaVuSans-2e"/>
       <use x="95.410156" xlink:href="#DejaVuSans-32"/>
      </g>
     </g>
    </g>
    <g id="xtick_3">
     <g id="line2d_3">
      <g>
       <use style="stroke:#000000;stroke-width:0.8;" x="196.238295" xlink:href="#m3001534fc4" y="273.312"/>
      </g>
     </g>
     <g id="text_3">
      <!-- 0.4 -->
      <g transform="translate(188.286733 287.910437)scale(0.1 -0.1)">
       <defs>
        <path d="M 2419 4116 
L 825 1625 
L 2419 1625 
L 2419 4116 
z
M 2253 4666 
L 3047 4666 
L 3047 1625 
L 3713 1625 
L 3713 1100 
L 3047 1100 
L 3047 0 
L 2419 0 
L 2419 1100 
L 313 1100 
L 313 1709 
L 2253 4666 
z
" id="DejaVuSans-34" transform="scale(0.015625)"/>
       </defs>
       <use xlink:href="#DejaVuSans-30"/>
       <use x="63.623047" xlink:href="#DejaVuSans-2e"/>
       <use x="95.410156" xlink:href="#DejaVuSans-34"/>
      </g>
     </g>
    </g>
    <g id="xtick_4">
     <g id="line2d_4">
      <g>
       <use style="stroke:#000000;stroke-width:0.8;" x="261.169205" xlink:href="#m3001534fc4" y="273.312"/>
      </g>
     </g>
     <g id="text_4">
      <!-- 0.6 -->
      <g transform="translate(253.217642 287.910437)scale(0.1 -0.1)">
       <defs>
        <path d="M 2113 2584 
Q 1688 2584 1439 2293 
Q 1191 2003 1191 1497 
Q 1191 994 1439 701 
Q 1688 409 2113 409 
Q 2538 409 2786 701 
Q 3034 994 3034 1497 
Q 3034 2003 2786 2293 
Q 2538 2584 2113 2584 
z
M 3366 4563 
L 3366 3988 
Q 3128 4100 2886 4159 
Q 2644 4219 2406 4219 
Q 1781 4219 1451 3797 
Q 1122 3375 1075 2522 
Q 1259 2794 1537 2939 
Q 1816 3084 2150 3084 
Q 2853 3084 3261 2657 
Q 3669 2231 3669 1497 
Q 3669 778 3244 343 
Q 2819 -91 2113 -91 
Q 1303 -91 875 529 
Q 447 1150 447 2328 
Q 447 3434 972 4092 
Q 1497 4750 2381 4750 
Q 2619 4750 2861 4703 
Q 3103 4656 3366 4563 
z
" id="DejaVuSans-36" transform="scale(0.015625)"/>
       </defs>
       <use xlink:href="#DejaVuSans-30"/>
       <use x="63.623047" xlink:href="#DejaVuSans-2e"/>
       <use x="95.410156" xlink:href="#DejaVuSans-36"/>
      </g>
     </g>
    </g>
    <g id="xtick_5">
     <g id="line2d_5">
      <g>
       <use style="stroke:#000000;stroke-width:0.8;" x="326.100114" xlink:href="#m3001534fc4" y="273.312"/>
      </g>
     </g>
     <g id="text_5">
      <!-- 0.8 -->
      <g transform="translate(318.148551 287.910437)scale(0.1 -0.1)">
       <defs>
        <path d="M 2034 2216 
Q 1584 2216 1326 1975 
Q 1069 1734 1069 1313 
Q 1069 891 1326 650 
Q 1584 409 2034 409 
Q 2484 409 2743 651 
Q 3003 894 3003 1313 
Q 3003 1734 2745 1975 
Q 2488 2216 2034 2216 
z
M 1403 2484 
Q 997 2584 770 2862 
Q 544 3141 544 3541 
Q 544 4100 942 4425 
Q 1341 4750 2034 4750 
Q 2731 4750 3128 4425 
Q 3525 4100 3525 3541 
Q 3525 3141 3298 2862 
Q 3072 2584 2669 2484 
Q 3125 2378 3379 2068 
Q 3634 1759 3634 1313 
Q 3634 634 3220 271 
Q 2806 -91 2034 -91 
Q 1263 -91 848 271 
Q 434 634 434 1313 
Q 434 1759 690 2068 
Q 947 2378 1403 2484 
z
M 1172 3481 
Q 1172 3119 1398 2916 
Q 1625 2713 2034 2713 
Q 2441 2713 2670 2916 
Q 2900 3119 2900 3481 
Q 2900 3844 2670 4047 
Q 2441 4250 2034 4250 
Q 1625 4250 1398 4047 
Q 1172 3844 1172 3481 
z
" id="DejaVuSans-38" transform="scale(0.015625)"/>
       </defs>
       <use xlink:href="#DejaVuSans-30"/>
       <use x="63.623047" xlink:href="#DejaVuSans-2e"/>
       <use x="95.410156" xlink:href="#DejaVuSans-38"/>
      </g>
     </g>
    </g>
    <g id="xtick_6">
     <g id="line2d_6">
      <g>
       <use style="stroke:#000000;stroke-width:0.8;" x="391.031023" xlink:href="#m3001534fc4" y="273.312"/>
      </g>
     </g>
     <g id="text_6">
      <!-- 1.0 -->
      <g transform="translate(383.07946 287.910437)scale(0.1 -0.1)">
       <defs>
        <path d="M 794 531 
L 1825 531 
L 1825 4091 
L 703 3866 
L 703 4441 
L 1819 4666 
L 2450 4666 
L 2450 531 
L 3481 531 
L 3481 0 
L 794 0 
L 794 531 
z
" id="DejaVuSans-31" transform="scale(0.015625)"/>
       </defs>
       <use xlink:href="#DejaVuSans-31"/>
       <use x="63.623047" xlink:href="#DejaVuSans-2e"/>
       <use x="95.410156" xlink:href="#DejaVuSans-30"/>
      </g>
     </g>
    </g>
    <g id="text_7">
     <!-- Propagation direction -->
     <g transform="translate(175.221719 301.588562)scale(0.1 -0.1)">
      <defs>
       <path d="M 1259 4147 
L 1259 2394 
L 2053 2394 
Q 2494 2394 2734 2622 
Q 2975 2850 2975 3272 
Q 2975 3691 2734 3919 
Q 2494 4147 2053 4147 
L 1259 4147 
z
M 628 4666 
L 2053 4666 
Q 2838 4666 3239 4311 
Q 3641 3956 3641 3272 
Q 3641 2581 3239 2228 
Q 2838 1875 2053 1875 
L 1259 1875 
L 1259 0 
L 628 0 
L 628 4666 
z
" id="DejaVuSans-50" transform="scale(0.015625)"/>
       <path d="M 2631 2963 
Q 2534 3019 2420 3045 
Q 2306 3072 2169 3072 
Q 1681 3072 1420 2755 
Q 1159 2438 1159 1844 
L 1159 0 
L 581 0 
L 581 3500 
L 1159 3500 
L 1159 2956 
Q 1341 3275 1631 3429 
Q 1922 3584 2338 3584 
Q 2397 3584 2469 3576 
Q 2541 3569 2628 3553 
L 2631 2963 
z
" id="DejaVuSans-72" transform="scale(0.015625)"/>
       <path d="M 1959 3097 
Q 1497 3097 1228 2736 
Q 959 2375 959 1747 
Q 959 1119 1226 758 
Q 1494 397 1959 397 
Q 2419 397 2687 759 
Q 2956 1122 2956 1747 
Q 2956 2369 2687 2733 
Q 2419 3097 1959 3097 
z
M 1959 3584 
Q 2709 3584 3137 3096 
Q 3566 2609 3566 1747 
Q 3566 888 3137 398 
Q 2709 -91 1959 -91 
Q 1206 -91 779 398 
Q 353 888 353 1747 
Q 353 2609 779 3096 
Q 1206 3584 1959 3584 
z
" id="DejaVuSans-6f" transform="scale(0.015625)"/>
       <path d="M 1159 525 
L 1159 -1331 
L 581 -1331 
L 581 3500 
L 1159 3500 
L 1159 2969 
Q 1341 3281 1617 3432 
Q 1894 3584 2278 3584 
Q 2916 3584 3314 3078 
Q 3713 2572 3713 1747 
Q 3713 922 3314 415 
Q 2916 -91 2278 -91 
Q 1894 -91 1617 61 
Q 1341 213 1159 525 
z
M 3116 1747 
Q 3116 2381 2855 2742 
Q 2594 3103 2138 3103 
Q 1681 3103 1420 2742 
Q 1159 2381 1159 1747 
Q 1159 1113 1420 752 
Q 1681 391 2138 391 
Q 2594 391 2855 752 
Q 3116 1113 3116 1747 
z
" id="DejaVuSans-70" transform="scale(0.015625)"/>
       <path d="M 2194 1759 
Q 1497 1759 1228 1600 
Q 959 1441 959 1056 
Q 959 750 1161 570 
Q 1363 391 1709 391 
Q 2188 391 2477 730 
Q 2766 1069 2766 1631 
L 2766 1759 
L 2194 1759 
z
M 3341 1997 
L 3341 0 
L 2766 0 
L 2766 531 
Q 2569 213 2275 61 
Q 1981 -91 1556 -91 
Q 1019 -91 701 211 
Q 384 513 384 1019 
Q 384 1609 779 1909 
Q 1175 2209 1959 2209 
L 2766 2209 
L 2766 2266 
Q 2766 2663 2505 2880 
Q 2244 3097 1772 3097 
Q 1472 3097 1187 3025 
Q 903 2953 641 2809 
L 641 3341 
Q 956 3463 1253 3523 
Q 1550 3584 1831 3584 
Q 2591 3584 2966 3190 
Q 3341 2797 3341 1997 
z
" id="DejaVuSans-61" transform="scale(0.015625)"/>
       <path d="M 2906 1791 
Q 2906 2416 2648 2759 
Q 2391 3103 1925 3103 
Q 1463 3103 1205 2759 
Q 947 2416 947 1791 
Q 947 1169 1205 825 
Q 1463 481 1925 481 
Q 2391 481 2648 825 
Q 2906 1169 2906 1791 
z
M 3481 434 
Q 3481 -459 3084 -895 
Q 2688 -1331 1869 -1331 
Q 1566 -1331 1297 -1286 
Q 1028 -1241 775 -1147 
L 775 -588 
Q 1028 -725 1275 -790 
Q 1522 -856 1778 -856 
Q 2344 -856 2625 -561 
Q 2906 -266 2906 331 
L 2906 616 
Q 2728 306 2450 153 
Q 2172 0 1784 0 
Q 1141 0 747 490 
Q 353 981 353 1791 
Q 353 2603 747 3093 
Q 1141 3584 1784 3584 
Q 2172 3584 2450 3431 
Q 2728 3278 2906 2969 
L 2906 3500 
L 3481 3500 
L 3481 434 
z
" id="DejaVuSans-67" transform="scale(0.015625)"/>
       <path d="M 1172 4494 
L 1172 3500 
L 2356 3500 
L 2356 3053 
L 1172 3053 
L 1172 1153 
Q 1172 725 1289 603 
Q 1406 481 1766 481 
L 2356 481 
L 2356 0 
L 1766 0 
Q 1100 0 847 248 
Q 594 497 594 1153 
L 594 3053 
L 172 3053 
L 172 3500 
L 594 3500 
L 594 4494 
L 1172 4494 
z
" id="DejaVuSans-74" transform="scale(0.015625)"/>
       <path d="M 603 3500 
L 1178 3500 
L 1178 0 
L 603 0 
L 603 3500 
z
M 603 4863 
L 1178 4863 
L 1178 4134 
L 603 4134 
L 603 4863 
z
" id="DejaVuSans-69" transform="scale(0.015625)"/>
       <path d="M 3513 2113 
L 3513 0 
L 2938 0 
L 2938 2094 
Q 2938 2591 2744 2837 
Q 2550 3084 2163 3084 
Q 1697 3084 1428 2787 
Q 1159 2491 1159 1978 
L 1159 0 
L 581 0 
L 581 3500 
L 1159 3500 
L 1159 2956 
Q 1366 3272 1645 3428 
Q 1925 3584 2291 3584 
Q 2894 3584 3203 3211 
Q 3513 2838 3513 2113 
z
" id="DejaVuSans-6e" transform="scale(0.015625)"/>
       <path id="DejaVuSans-20" transform="scale(0.015625)"/>
       <path d="M 2906 2969 
L 2906 4863 
L 3481 4863 
L 3481 0 
L 2906 0 
L 2906 525 
Q 2725 213 2448 61 
Q 2172 -91 1784 -91 
Q 1150 -91 751 415 
Q 353 922 353 1747 
Q 353 2572 751 3078 
Q 1150 3584 1784 3584 
Q 2172 3584 2448 3432 
Q 2725 3281 2906 2969 
z
M 947 1747 
Q 947 1113 1208 752 
Q 1469 391 1925 391 
Q 2381 391 2643 752 
Q 2906 1113 2906 1747 
Q 2906 2381 2643 2742 
Q 2381 3103 1925 3103 
Q 1469 3103 1208 2742 
Q 947 2381 947 1747 
z
" id="DejaVuSans-64" transform="scale(0.015625)"/>
       <path d="M 3597 1894 
L 3597 1613 
L 953 1613 
Q 991 1019 1311 708 
Q 1631 397 2203 397 
Q 2534 397 2845 478 
Q 3156 559 3463 722 
L 3463 178 
Q 3153 47 2828 -22 
Q 2503 -91 2169 -91 
Q 1331 -91 842 396 
Q 353 884 353 1716 
Q 353 2575 817 3079 
Q 1281 3584 2069 3584 
Q 2775 3584 3186 3129 
Q 3597 2675 3597 1894 
z
M 3022 2063 
Q 3016 2534 2758 2815 
Q 2500 3097 2075 3097 
Q 1594 3097 1305 2825 
Q 1016 2553 972 2059 
L 3022 2063 
z
" id="DejaVuSans-65" transform="scale(0.015625)"/>
       <path d="M 3122 3366 
L 3122 2828 
Q 2878 2963 2633 3030 
Q 2388 3097 2138 3097 
Q 1578 3097 1268 2742 
Q 959 2388 959 1747 
Q 959 1106 1268 751 
Q 1578 397 2138 397 
Q 2388 397 2633 464 
Q 2878 531 3122 666 
L 3122 134 
Q 2881 22 2623 -34 
Q 2366 -91 2075 -91 
Q 1284 -91 818 406 
Q 353 903 353 1747 
Q 353 2603 823 3093 
Q 1294 3584 2113 3584 
Q 2378 3584 2631 3529 
Q 2884 3475 3122 3366 
z
" id="DejaVuSans-63" transform="scale(0.015625)"/>
      </defs>
      <use xlink:href="#DejaVuSans-50"/>
      <use x="58.552734" xlink:href="#DejaVuSans-72"/>
      <use x="97.416016" xlink:href="#DejaVuSans-6f"/>
      <use x="158.597656" xlink:href="#DejaVuSans-70"/>
      <use x="222.074219" xlink:href="#DejaVuSans-61"/>
      <use x="283.353516" xlink:href="#DejaVuSans-67"/>
      <use x="346.830078" xlink:href="#DejaVuSans-61"/>
      <use x="408.109375" xlink:href="#DejaVuSans-74"/>
      <use x="447.318359" xlink:href="#DejaVuSans-69"/>
      <use x="475.101562" xlink:href="#DejaVuSans-6f"/>
      <use x="536.283203" xlink:href="#DejaVuSans-6e"/>
      <use x="599.662109" xlink:href="#DejaVuSans-20"/>
      <use x="631.449219" xlink:href="#DejaVuSans-64"/>
      <use x="694.925781" xlink:href="#DejaVuSans-69"/>
      <use x="722.708984" xlink:href="#DejaVuSans-72"/>
      <use x="761.572266" xlink:href="#DejaVuSans-65"/>
      <use x="823.095703" xlink:href="#DejaVuSans-63"/>
      <use x="878.076172" xlink:href="#DejaVuSans-74"/>
      <use x="917.285156" xlink:href="#DejaVuSans-69"/>
      <use x="945.068359" xlink:href="#DejaVuSans-6f"/>
      <use x="1006.25" xlink:href="#DejaVuSans-6e"/>
     </g>
    </g>
   </g>
   <g id="matplotlib.axis_2">
    <g id="ytick_1">
     <g id="line2d_7">
      <defs>
       <path d="M 0 0 
L -3.5 0 
" id="mee8e0448b4" style="stroke:#000000;stroke-width:0.8;"/>
      </defs>
      <g>
       <use style="stroke:#000000;stroke-width:0.8;" x="50.14375" xlink:href="#mee8e0448b4" y="273.312"/>
      </g>
     </g>
     <g id="text_8">
      <!-- 0.00 -->
      <g transform="translate(20.878125 277.111219)scale(0.1 -0.1)">
       <use xlink:href="#DejaVuSans-30"/>
       <use x="63.623047" xlink:href="#DejaVuSans-2e"/>
       <use x="95.410156" xlink:href="#DejaVuSans-30"/>
       <use x="159.033203" xlink:href="#DejaVuSans-30"/>
      </g>
     </g>
    </g>
    <g id="ytick_2">
     <g id="line2d_8">
      <g>
       <use style="stroke:#000000;stroke-width:0.8;" x="50.14375" xlink:href="#mee8e0448b4" y="243.212576"/>
      </g>
     </g>
     <g id="text_9">
      <!-- 0.25 -->
      <g transform="translate(20.878125 247.011795)scale(0.1 -0.1)">
       <defs>
        <path d="M 691 4666 
L 3169 4666 
L 3169 4134 
L 1269 4134 
L 1269 2991 
Q 1406 3038 1543 3061 
Q 1681 3084 1819 3084 
Q 2600 3084 3056 2656 
Q 3513 2228 3513 1497 
Q 3513 744 3044 326 
Q 2575 -91 1722 -91 
Q 1428 -91 1123 -41 
Q 819 9 494 109 
L 494 744 
Q 775 591 1075 516 
Q 1375 441 1709 441 
Q 2250 441 2565 725 
Q 2881 1009 2881 1497 
Q 2881 1984 2565 2268 
Q 2250 2553 1709 2553 
Q 1456 2553 1204 2497 
Q 953 2441 691 2322 
L 691 4666 
z
" id="DejaVuSans-35" transform="scale(0.015625)"/>
       </defs>
       <use xlink:href="#DejaVuSans-30"/>
       <use x="63.623047" xlink:href="#DejaVuSans-2e"/>
       <use x="95.410156" xlink:href="#DejaVuSans-32"/>
       <use x="159.033203" xlink:href="#DejaVuSans-35"/>
      </g>
     </g>
    </g>
    <g id="ytick_3">
     <g id="line2d_9">
      <g>
       <use style="stroke:#000000;stroke-width:0.8;" x="50.14375" xlink:href="#mee8e0448b4" y="213.113153"/>
      </g>
     </g>
     <g id="text_10">
      <!-- 0.50 -->
      <g transform="translate(20.878125 216.912371)scale(0.1 -0.1)">
       <use xlink:href="#DejaVuSans-30"/>
       <use x="63.623047" xlink:href="#DejaVuSans-2e"/>
       <use x="95.410156" xlink:href="#DejaVuSans-35"/>
       <use x="159.033203" xlink:href="#DejaVuSans-30"/>
      </g>
     </g>
    </g>
    <g id="ytick_4">
     <g id="line2d_10">
      <g>
       <use style="stroke:#000000;stroke-width:0.8;" x="50.14375" xlink:href="#mee8e0448b4" y="183.013729"/>
      </g>
     </g>
     <g id="text_11">
      <!-- 0.75 -->
      <g transform="translate(20.878125 186.812948)scale(0.1 -0.1)">
       <defs>
        <path d="M 525 4666 
L 3525 4666 
L 3525 4397 
L 1831 0 
L 1172 0 
L 2766 4134 
L 525 4134 
L 525 4666 
z
" id="DejaVuSans-37" transform="scale(0.015625)"/>
       </defs>
       <use xlink:href="#DejaVuSans-30"/>
       <use x="63.623047" xlink:href="#DejaVuSans-2e"/>
       <use x="95.410156" xlink:href="#DejaVuSans-37"/>
       <use x="159.033203" xlink:href="#DejaVuSans-35"/>
      </g>
     </g>
    </g>
    <g id="ytick_5">
     <g id="line2d_11">
      <g>
       <use style="stroke:#000000;stroke-width:0.8;" x="50.14375" xlink:href="#mee8e0448b4" y="152.914305"/>
      </g>
     </g>
     <g id="text_12">
      <!-- 1.00 -->
      <g transform="translate(20.878125 156.713524)scale(0.1 -0.1)">
       <use xlink:href="#DejaVuSans-31"/>
       <use x="63.623047" xlink:href="#DejaVuSans-2e"/>
       <use x="95.410156" xlink:href="#DejaVuSans-30"/>
       <use x="159.033203" xlink:href="#DejaVuSans-30"/>
      </g>
     </g>
    </g>
    <g id="ytick_6">
     <g id="line2d_12">
      <g>
       <use style="stroke:#000000;stroke-width:0.8;" x="50.14375" xlink:href="#mee8e0448b4" y="122.814882"/>
      </g>
     </g>
     <g id="text_13">
      <!-- 1.25 -->
      <g transform="translate(20.878125 126.6141)scale(0.1 -0.1)">
       <use xlink:href="#DejaVuSans-31"/>
       <use x="63.623047" xlink:href="#DejaVuSans-2e"/>
       <use x="95.410156" xlink:href="#DejaVuSans-32"/>
       <use x="159.033203" xlink:href="#DejaVuSans-35"/>
      </g>
     </g>
    </g>
    <g id="ytick_7">
     <g id="line2d_13">
      <g>
       <use style="stroke:#000000;stroke-width:0.8;" x="50.14375" xlink:href="#mee8e0448b4" y="92.715458"/>
      </g>
     </g>
     <g id="text_14">
      <!-- 1.50 -->
      <g transform="translate(20.878125 96.514677)scale(0.1 -0.1)">
       <use xlink:href="#DejaVuSans-31"/>
       <use x="63.623047" xlink:href="#DejaVuSans-2e"/>
       <use x="95.410156" xlink:href="#DejaVuSans-35"/>
       <use x="159.033203" xlink:href="#DejaVuSans-30"/>
      </g>
     </g>
    </g>
    <g id="ytick_8">
     <g id="line2d_14">
      <g>
       <use style="stroke:#000000;stroke-width:0.8;" x="50.14375" xlink:href="#mee8e0448b4" y="62.616034"/>
      </g>
     </g>
     <g id="text_15">
      <!-- 1.75 -->
      <g transform="translate(20.878125 66.415253)scale(0.1 -0.1)">
       <use xlink:href="#DejaVuSans-31"/>
       <use x="63.623047" xlink:href="#DejaVuSans-2e"/>
       <use x="95.410156" xlink:href="#DejaVuSans-37"/>
       <use x="159.033203" xlink:href="#DejaVuSans-35"/>
      </g>
     </g>
    </g>
    <g id="ytick_9">
     <g id="line2d_15">
      <g>
       <use style="stroke:#000000;stroke-width:0.8;" x="50.14375" xlink:href="#mee8e0448b4" y="32.516611"/>
      </g>
     </g>
     <g id="text_16">
      <!-- 2.00 -->
      <g transform="translate(20.878125 36.31583)scale(0.1 -0.1)">
       <use xlink:href="#DejaVuSans-32"/>
       <use x="63.623047" xlink:href="#DejaVuSans-2e"/>
       <use x="95.410156" xlink:href="#DejaVuSans-30"/>
       <use x="159.033203" xlink:href="#DejaVuSans-30"/>
      </g>
     </g>
    </g>
    <g id="text_17">
     <!-- Probability density -->
     <g transform="translate(14.798438 186.606781)rotate(-90)scale(0.1 -0.1)">
      <defs>
       <path d="M 3116 1747 
Q 3116 2381 2855 2742 
Q 2594 3103 2138 3103 
Q 1681 3103 1420 2742 
Q 1159 2381 1159 1747 
Q 1159 1113 1420 752 
Q 1681 391 2138 391 
Q 2594 391 2855 752 
Q 3116 1113 3116 1747 
z
M 1159 2969 
Q 1341 3281 1617 3432 
Q 1894 3584 2278 3584 
Q 2916 3584 3314 3078 
Q 3713 2572 3713 1747 
Q 3713 922 3314 415 
Q 2916 -91 2278 -91 
Q 1894 -91 1617 61 
Q 1341 213 1159 525 
L 1159 0 
L 581 0 
L 581 4863 
L 1159 4863 
L 1159 2969 
z
" id="DejaVuSans-62" transform="scale(0.015625)"/>
       <path d="M 603 4863 
L 1178 4863 
L 1178 0 
L 603 0 
L 603 4863 
z
" id="DejaVuSans-6c" transform="scale(0.015625)"/>
       <path d="M 2059 -325 
Q 1816 -950 1584 -1140 
Q 1353 -1331 966 -1331 
L 506 -1331 
L 506 -850 
L 844 -850 
Q 1081 -850 1212 -737 
Q 1344 -625 1503 -206 
L 1606 56 
L 191 3500 
L 800 3500 
L 1894 763 
L 2988 3500 
L 3597 3500 
L 2059 -325 
z
" id="DejaVuSans-79" transform="scale(0.015625)"/>
       <path d="M 2834 3397 
L 2834 2853 
Q 2591 2978 2328 3040 
Q 2066 3103 1784 3103 
Q 1356 3103 1142 2972 
Q 928 2841 928 2578 
Q 928 2378 1081 2264 
Q 1234 2150 1697 2047 
L 1894 2003 
Q 2506 1872 2764 1633 
Q 3022 1394 3022 966 
Q 3022 478 2636 193 
Q 2250 -91 1575 -91 
Q 1294 -91 989 -36 
Q 684 19 347 128 
L 347 722 
Q 666 556 975 473 
Q 1284 391 1588 391 
Q 1994 391 2212 530 
Q 2431 669 2431 922 
Q 2431 1156 2273 1281 
Q 2116 1406 1581 1522 
L 1381 1569 
Q 847 1681 609 1914 
Q 372 2147 372 2553 
Q 372 3047 722 3315 
Q 1072 3584 1716 3584 
Q 2034 3584 2315 3537 
Q 2597 3491 2834 3397 
z
" id="DejaVuSans-73" transform="scale(0.015625)"/>
      </defs>
      <use xlink:href="#DejaVuSans-50"/>
      <use x="58.552734" xlink:href="#DejaVuSans-72"/>
      <use x="97.416016" xlink:href="#DejaVuSans-6f"/>
      <use x="158.597656" xlink:href="#DejaVuSans-62"/>
      <use x="222.074219" xlink:href="#DejaVuSans-61"/>
      <use x="283.353516" xlink:href="#DejaVuSans-62"/>
      <use x="346.830078" xlink:href="#DejaVuSans-69"/>
      <use x="374.613281" xlink:href="#DejaVuSans-6c"/>
      <use x="402.396484" xlink:href="#DejaVuSans-69"/>
      <use x="430.179688" xlink:href="#DejaVuSans-74"/>
      <use x="469.388672" xlink:href="#DejaVuSans-79"/>
      <use x="528.568359" xlink:href="#DejaVuSans-20"/>
      <use x="560.355469" xlink:href="#DejaVuSans-64"/>
      <use x="623.832031" xlink:href="#DejaVuSans-65"/>
      <use x="685.355469" xlink:href="#DejaVuSans-6e"/>
      <use x="748.734375" xlink:href="#DejaVuSans-73"/>
      <use x="800.833984" xlink:href="#DejaVuSans-69"/>
      <use x="828.617188" xlink:href="#DejaVuSans-74"/>
      <use x="867.826172" xlink:href="#DejaVuSans-79"/>
     </g>
    </g>
   </g>
   <g id="line2d_16">
    <path clip-path="url(#pe932a5fe6b)" d="M 66.376477 273.312 
L 391.031023 32.516611 
L 391.031023 32.516611 
" style="fill:none;stroke:#ff7f0e;stroke-linecap:square;stroke-width:1.5;"/>
   </g>
   <g id="patch_203">
    <path d="M 50.14375 273.312 
L 50.14375 7.2 
" style="fill:none;stroke:#000000;stroke-linecap:square;stroke-linejoin:miter;stroke-width:0.8;"/>
   </g>
   <g id="patch_204">
    <path d="M 407.26375 273.312 
L 407.26375 7.2 
" style="fill:none;stroke:#000000;stroke-linecap:square;stroke-linejoin:miter;stroke-width:0.8;"/>
   </g>
   <g id="patch_205">
    <path d="M 50.14375 273.312 
L 407.26375 273.312 
" style="fill:none;stroke:#000000;stroke-linecap:square;stroke-linejoin:miter;stroke-width:0.8;"/>
   </g>
   <g id="patch_206">
    <path d="M 50.14375 7.2 
L 407.26375 7.2 
" style="fill:none;stroke:#000000;stroke-linecap:square;stroke-linejoin:miter;stroke-width:0.8;"/>
   </g>
  </g>
 </g>
 <defs>
  <clipPath id="pe932a5fe6b">
   <rect height="266.112" width="357.12" x="50.14375" y="7.2"/>
  </clipPath>
 </defs>
</svg>
