<?xml version="1.0" encoding="utf-8" standalone="no"?>
<!DOCTYPE svg PUBLIC "-//W3C//DTD SVG 1.1//EN"
  "http://www.w3.org/Graphics/SVG/1.1/DTD/svg11.dtd">
<svg height="310.86825pt" version="1.1" viewBox="0 0 408.10125 310.86825" width="408.10125pt" xmlns="http://www.w3.org/2000/svg" xmlns:xlink="http://www.w3.org/1999/xlink">
 <metadata>
  <rdf:RDF xmlns:cc="http://creativecommons.org/ns#" xmlns:dc="http://purl.org/dc/elements/1.1/" xmlns:rdf="http://www.w3.org/1999/02/22-rdf-syntax-ns#">
   <cc:Work>
    <dc:type rdf:resource="http://purl.org/dc/dcmitype/StillImage"/>
    <dc:date>2021-10-06T13:59:07.060601</dc:date>
    <dc:format>image/svg+xml</dc:format>
    <dc:creator>
     <cc:Agent>
      <dc:title>Matplotlib v3.4.3, https://matplotlib.org/</dc:title>
     </cc:Agent>
    </dc:creator>
   </cc:Work>
  </rdf:RDF>
 </metadata>
 <defs>
  <style type="text/css">*{stroke-linecap:butt;stroke-linejoin:round;}</style>
 </defs>
 <g id="figure_1">
  <g id="patch_1">
   <path d="M 0 310.86825 
L 408.10125 310.86825 
L 408.10125 0 
L 0 0 
z
" style="fill:#ffffff;"/>
  </g>
  <g id="axes_1">
   <g id="patch_2">
    <path d="M 43.78125 273.312 
L 400.90125 273.312 
L 400.90125 7.2 
L 43.78125 7.2 
z
" style="fill:#ffffff;"/>
   </g>
   <g id="patch_3">
    <path clip-path="url(#pa6611f6206)" d="M 60.652466 273.312 
L 62.265175 273.312 
L 62.265175 268.2432 
L 60.652466 268.2432 
z
" style="fill:#1f77b4;"/>
   </g>
   <g id="patch_4">
    <path clip-path="url(#pa6611f6206)" d="M 62.265175 273.312 
L 63.877885 273.312 
L 63.877885 264.622629 
L 62.265175 264.622629 
z
" style="fill:#1f77b4;"/>
   </g>
   <g id="patch_5">
    <path clip-path="url(#pa6611f6206)" d="M 63.877885 273.312 
L 65.490595 273.312 
L 65.490595 261.002057 
L 63.877885 261.002057 
z
" style="fill:#1f77b4;"/>
   </g>
   <g id="patch_6">
    <path clip-path="url(#pa6611f6206)" d="M 65.490595 273.312 
L 67.103304 273.312 
L 67.103304 258.1056 
L 65.490595 258.1056 
z
" style="fill:#1f77b4;"/>
   </g>
   <g id="patch_7">
    <path clip-path="url(#pa6611f6206)" d="M 67.103304 273.312 
L 68.716014 273.312 
L 68.716014 256.657371 
L 67.103304 256.657371 
z
" style="fill:#1f77b4;"/>
   </g>
   <g id="patch_8">
    <path clip-path="url(#pa6611f6206)" d="M 68.716014 273.312 
L 70.328724 273.312 
L 70.328724 253.0368 
L 68.716014 253.0368 
z
" style="fill:#1f77b4;"/>
   </g>
   <g id="patch_9">
    <path clip-path="url(#pa6611f6206)" d="M 70.328724 273.312 
L 71.941433 273.312 
L 71.941433 250.140343 
L 70.328724 250.140343 
z
" style="fill:#1f77b4;"/>
   </g>
   <g id="patch_10">
    <path clip-path="url(#pa6611f6206)" d="M 71.941433 273.312 
L 73.554143 273.312 
L 73.554143 243.623314 
L 71.941433 243.623314 
z
" style="fill:#1f77b4;"/>
   </g>
   <g id="patch_11">
    <path clip-path="url(#pa6611f6206)" d="M 73.554143 273.312 
L 75.166853 273.312 
L 75.166853 243.623314 
L 73.554143 243.623314 
z
" style="fill:#1f77b4;"/>
   </g>
   <g id="patch_12">
    <path clip-path="url(#pa6611f6206)" d="M 75.166853 273.312 
L 76.779562 273.312 
L 76.779562 235.658057 
L 75.166853 235.658057 
z
" style="fill:#1f77b4;"/>
   </g>
   <g id="patch_13">
    <path clip-path="url(#pa6611f6206)" d="M 76.779562 273.312 
L 78.392272 273.312 
L 78.392272 239.278629 
L 76.779562 239.278629 
z
" style="fill:#1f77b4;"/>
   </g>
   <g id="patch_14">
    <path clip-path="url(#pa6611f6206)" d="M 78.392272 273.312 
L 80.004982 273.312 
L 80.004982 224.072229 
L 78.392272 224.072229 
z
" style="fill:#1f77b4;"/>
   </g>
   <g id="patch_15">
    <path clip-path="url(#pa6611f6206)" d="M 80.004982 273.312 
L 81.617691 273.312 
L 81.617691 231.313371 
L 80.004982 231.313371 
z
" style="fill:#1f77b4;"/>
   </g>
   <g id="patch_16">
    <path clip-path="url(#pa6611f6206)" d="M 81.617691 273.312 
L 83.230401 273.312 
L 83.230401 225.520457 
L 81.617691 225.520457 
z
" style="fill:#1f77b4;"/>
   </g>
   <g id="patch_17">
    <path clip-path="url(#pa6611f6206)" d="M 83.230401 273.312 
L 84.84311 273.312 
L 84.84311 220.451657 
L 83.230401 220.451657 
z
" style="fill:#1f77b4;"/>
   </g>
   <g id="patch_18">
    <path clip-path="url(#pa6611f6206)" d="M 84.84311 273.312 
L 86.45582 273.312 
L 86.45582 233.485714 
L 84.84311 233.485714 
z
" style="fill:#1f77b4;"/>
   </g>
   <g id="patch_19">
    <path clip-path="url(#pa6611f6206)" d="M 86.45582 273.312 
L 88.06853 273.312 
L 88.06853 221.175771 
L 86.45582 221.175771 
z
" style="fill:#1f77b4;"/>
   </g>
   <g id="patch_20">
    <path clip-path="url(#pa6611f6206)" d="M 88.06853 273.312 
L 89.681239 273.312 
L 89.681239 220.451657 
L 88.06853 220.451657 
z
" style="fill:#1f77b4;"/>
   </g>
   <g id="patch_21">
    <path clip-path="url(#pa6611f6206)" d="M 89.681239 273.312 
L 91.293949 273.312 
L 91.293949 213.210514 
L 89.681239 213.210514 
z
" style="fill:#1f77b4;"/>
   </g>
   <g id="patch_22">
    <path clip-path="url(#pa6611f6206)" d="M 91.293949 273.312 
L 92.906659 273.312 
L 92.906659 197.28 
L 91.293949 197.28 
z
" style="fill:#1f77b4;"/>
   </g>
   <g id="patch_23">
    <path clip-path="url(#pa6611f6206)" d="M 92.906659 273.312 
L 94.519368 273.312 
L 94.519368 200.176457 
L 92.906659 200.176457 
z
" style="fill:#1f77b4;"/>
   </g>
   <g id="patch_24">
    <path clip-path="url(#pa6611f6206)" d="M 94.519368 273.312 
L 96.132078 273.312 
L 96.132078 203.072914 
L 94.519368 203.072914 
z
" style="fill:#1f77b4;"/>
   </g>
   <g id="patch_25">
    <path clip-path="url(#pa6611f6206)" d="M 96.132078 273.312 
L 97.744788 273.312 
L 97.744788 198.728229 
L 96.132078 198.728229 
z
" style="fill:#1f77b4;"/>
   </g>
   <g id="patch_26">
    <path clip-path="url(#pa6611f6206)" d="M 97.744788 273.312 
L 99.357497 273.312 
L 99.357497 171.936 
L 97.744788 171.936 
z
" style="fill:#1f77b4;"/>
   </g>
   <g id="patch_27">
    <path clip-path="url(#pa6611f6206)" d="M 99.357497 273.312 
L 100.970207 273.312 
L 100.970207 179.177143 
L 99.357497 179.177143 
z
" style="fill:#1f77b4;"/>
   </g>
   <g id="patch_28">
    <path clip-path="url(#pa6611f6206)" d="M 100.970207 273.312 
L 102.582917 273.312 
L 102.582917 180.625371 
L 100.970207 180.625371 
z
" style="fill:#1f77b4;"/>
   </g>
   <g id="patch_29">
    <path clip-path="url(#pa6611f6206)" d="M 102.582917 273.312 
L 104.195626 273.312 
L 104.195626 180.625371 
L 102.582917 180.625371 
z
" style="fill:#1f77b4;"/>
   </g>
   <g id="patch_30">
    <path clip-path="url(#pa6611f6206)" d="M 104.195626 273.312 
L 105.808336 273.312 
L 105.808336 190.038857 
L 104.195626 190.038857 
z
" style="fill:#1f77b4;"/>
   </g>
   <g id="patch_31">
    <path clip-path="url(#pa6611f6206)" d="M 105.808336 273.312 
L 107.421046 273.312 
L 107.421046 172.660114 
L 105.808336 172.660114 
z
" style="fill:#1f77b4;"/>
   </g>
   <g id="patch_32">
    <path clip-path="url(#pa6611f6206)" d="M 107.421046 273.312 
L 109.033755 273.312 
L 109.033755 182.797714 
L 107.421046 182.797714 
z
" style="fill:#1f77b4;"/>
   </g>
   <g id="patch_33">
    <path clip-path="url(#pa6611f6206)" d="M 109.033755 273.312 
L 110.646465 273.312 
L 110.646465 158.177829 
L 109.033755 158.177829 
z
" style="fill:#1f77b4;"/>
   </g>
   <g id="patch_34">
    <path clip-path="url(#pa6611f6206)" d="M 110.646465 273.312 
L 112.259175 273.312 
L 112.259175 162.522514 
L 110.646465 162.522514 
z
" style="fill:#1f77b4;"/>
   </g>
   <g id="patch_35">
    <path clip-path="url(#pa6611f6206)" d="M 112.259175 273.312 
L 113.871884 273.312 
L 113.871884 168.315429 
L 112.259175 168.315429 
z
" style="fill:#1f77b4;"/>
   </g>
   <g id="patch_36">
    <path clip-path="url(#pa6611f6206)" d="M 113.871884 273.312 
L 115.484594 273.312 
L 115.484594 161.7984 
L 113.871884 161.7984 
z
" style="fill:#1f77b4;"/>
   </g>
   <g id="patch_37">
    <path clip-path="url(#pa6611f6206)" d="M 115.484594 273.312 
L 117.097304 273.312 
L 117.097304 158.901943 
L 115.484594 158.901943 
z
" style="fill:#1f77b4;"/>
   </g>
   <g id="patch_38">
    <path clip-path="url(#pa6611f6206)" d="M 117.097304 273.312 
L 118.710013 273.312 
L 118.710013 129.937371 
L 117.097304 129.937371 
z
" style="fill:#1f77b4;"/>
   </g>
   <g id="patch_39">
    <path clip-path="url(#pa6611f6206)" d="M 118.710013 273.312 
L 120.322723 273.312 
L 120.322723 142.971429 
L 118.710013 142.971429 
z
" style="fill:#1f77b4;"/>
   </g>
   <g id="patch_40">
    <path clip-path="url(#pa6611f6206)" d="M 120.322723 273.312 
L 121.935433 273.312 
L 121.935433 138.626743 
L 120.322723 138.626743 
z
" style="fill:#1f77b4;"/>
   </g>
   <g id="patch_41">
    <path clip-path="url(#pa6611f6206)" d="M 121.935433 273.312 
L 123.548142 273.312 
L 123.548142 166.143086 
L 121.935433 166.143086 
z
" style="fill:#1f77b4;"/>
   </g>
   <g id="patch_42">
    <path clip-path="url(#pa6611f6206)" d="M 123.548142 273.312 
L 125.160852 273.312 
L 125.160852 142.971429 
L 123.548142 142.971429 
z
" style="fill:#1f77b4;"/>
   </g>
   <g id="patch_43">
    <path clip-path="url(#pa6611f6206)" d="M 125.160852 273.312 
L 126.773562 273.312 
L 126.773562 130.661486 
L 125.160852 130.661486 
z
" style="fill:#1f77b4;"/>
   </g>
   <g id="patch_44">
    <path clip-path="url(#pa6611f6206)" d="M 126.773562 273.312 
L 128.386271 273.312 
L 128.386271 119.799771 
L 126.773562 119.799771 
z
" style="fill:#1f77b4;"/>
   </g>
   <g id="patch_45">
    <path clip-path="url(#pa6611f6206)" d="M 128.386271 273.312 
L 129.998981 273.312 
L 129.998981 133.557943 
L 128.386271 133.557943 
z
" style="fill:#1f77b4;"/>
   </g>
   <g id="patch_46">
    <path clip-path="url(#pa6611f6206)" d="M 129.998981 273.312 
L 131.61169 273.312 
L 131.61169 131.3856 
L 129.998981 131.3856 
z
" style="fill:#1f77b4;"/>
   </g>
   <g id="patch_47">
    <path clip-path="url(#pa6611f6206)" d="M 131.61169 273.312 
L 133.2244 273.312 
L 133.2244 118.351543 
L 131.61169 118.351543 
z
" style="fill:#1f77b4;"/>
   </g>
   <g id="patch_48">
    <path clip-path="url(#pa6611f6206)" d="M 133.2244 273.312 
L 134.83711 273.312 
L 134.83711 124.144457 
L 133.2244 124.144457 
z
" style="fill:#1f77b4;"/>
   </g>
   <g id="patch_49">
    <path clip-path="url(#pa6611f6206)" d="M 134.83711 273.312 
L 136.449819 273.312 
L 136.449819 126.3168 
L 134.83711 126.3168 
z
" style="fill:#1f77b4;"/>
   </g>
   <g id="patch_50">
    <path clip-path="url(#pa6611f6206)" d="M 136.449819 273.312 
L 138.062529 273.312 
L 138.062529 132.833829 
L 136.449819 132.833829 
z
" style="fill:#1f77b4;"/>
   </g>
   <g id="patch_51">
    <path clip-path="url(#pa6611f6206)" d="M 138.062529 273.312 
L 139.675239 273.312 
L 139.675239 119.799771 
L 138.062529 119.799771 
z
" style="fill:#1f77b4;"/>
   </g>
   <g id="patch_52">
    <path clip-path="url(#pa6611f6206)" d="M 139.675239 273.312 
L 141.287948 273.312 
L 141.287948 119.799771 
L 139.675239 119.799771 
z
" style="fill:#1f77b4;"/>
   </g>
   <g id="patch_53">
    <path clip-path="url(#pa6611f6206)" d="M 141.287948 273.312 
L 142.900658 273.312 
L 142.900658 102.421029 
L 141.287948 102.421029 
z
" style="fill:#1f77b4;"/>
   </g>
   <g id="patch_54">
    <path clip-path="url(#pa6611f6206)" d="M 142.900658 273.312 
L 144.513368 273.312 
L 144.513368 95.904 
L 142.900658 95.904 
z
" style="fill:#1f77b4;"/>
   </g>
   <g id="patch_55">
    <path clip-path="url(#pa6611f6206)" d="M 144.513368 273.312 
L 146.126077 273.312 
L 146.126077 121.972114 
L 144.513368 121.972114 
z
" style="fill:#1f77b4;"/>
   </g>
   <g id="patch_56">
    <path clip-path="url(#pa6611f6206)" d="M 146.126077 273.312 
L 147.738787 273.312 
L 147.738787 93.731657 
L 146.126077 93.731657 
z
" style="fill:#1f77b4;"/>
   </g>
   <g id="patch_57">
    <path clip-path="url(#pa6611f6206)" d="M 147.738787 273.312 
L 149.351497 273.312 
L 149.351497 102.421029 
L 147.738787 102.421029 
z
" style="fill:#1f77b4;"/>
   </g>
   <g id="patch_58">
    <path clip-path="url(#pa6611f6206)" d="M 149.351497 273.312 
L 150.964206 273.312 
L 150.964206 107.489829 
L 149.351497 107.489829 
z
" style="fill:#1f77b4;"/>
   </g>
   <g id="patch_59">
    <path clip-path="url(#pa6611f6206)" d="M 150.964206 273.312 
L 152.576916 273.312 
L 152.576916 108.213943 
L 150.964206 108.213943 
z
" style="fill:#1f77b4;"/>
   </g>
   <g id="patch_60">
    <path clip-path="url(#pa6611f6206)" d="M 152.576916 273.312 
L 154.189626 273.312 
L 154.189626 101.696914 
L 152.576916 101.696914 
z
" style="fill:#1f77b4;"/>
   </g>
   <g id="patch_61">
    <path clip-path="url(#pa6611f6206)" d="M 154.189626 273.312 
L 155.802335 273.312 
L 155.802335 79.249371 
L 154.189626 79.249371 
z
" style="fill:#1f77b4;"/>
   </g>
   <g id="patch_62">
    <path clip-path="url(#pa6611f6206)" d="M 155.802335 273.312 
L 157.415045 273.312 
L 157.415045 108.213943 
L 155.802335 108.213943 
z
" style="fill:#1f77b4;"/>
   </g>
   <g id="patch_63">
    <path clip-path="url(#pa6611f6206)" d="M 157.415045 273.312 
L 159.027755 273.312 
L 159.027755 81.421714 
L 157.415045 81.421714 
z
" style="fill:#1f77b4;"/>
   </g>
   <g id="patch_64">
    <path clip-path="url(#pa6611f6206)" d="M 159.027755 273.312 
L 160.640464 273.312 
L 160.640464 81.421714 
L 159.027755 81.421714 
z
" style="fill:#1f77b4;"/>
   </g>
   <g id="patch_65">
    <path clip-path="url(#pa6611f6206)" d="M 160.640464 273.312 
L 162.253174 273.312 
L 162.253174 91.559314 
L 160.640464 91.559314 
z
" style="fill:#1f77b4;"/>
   </g>
   <g id="patch_66">
    <path clip-path="url(#pa6611f6206)" d="M 162.253174 273.312 
L 163.865884 273.312 
L 163.865884 75.6288 
L 162.253174 75.6288 
z
" style="fill:#1f77b4;"/>
   </g>
   <g id="patch_67">
    <path clip-path="url(#pa6611f6206)" d="M 163.865884 273.312 
L 165.478593 273.312 
L 165.478593 91.559314 
L 163.865884 91.559314 
z
" style="fill:#1f77b4;"/>
   </g>
   <g id="patch_68">
    <path clip-path="url(#pa6611f6206)" d="M 165.478593 273.312 
L 167.091303 273.312 
L 167.091303 70.56 
L 165.478593 70.56 
z
" style="fill:#1f77b4;"/>
   </g>
   <g id="patch_69">
    <path clip-path="url(#pa6611f6206)" d="M 167.091303 273.312 
L 168.704013 273.312 
L 168.704013 93.007543 
L 167.091303 93.007543 
z
" style="fill:#1f77b4;"/>
   </g>
   <g id="patch_70">
    <path clip-path="url(#pa6611f6206)" d="M 168.704013 273.312 
L 170.316722 273.312 
L 170.316722 87.214629 
L 168.704013 87.214629 
z
" style="fill:#1f77b4;"/>
   </g>
   <g id="patch_71">
    <path clip-path="url(#pa6611f6206)" d="M 170.316722 273.312 
L 171.929432 273.312 
L 171.929432 73.456457 
L 170.316722 73.456457 
z
" style="fill:#1f77b4;"/>
   </g>
   <g id="patch_72">
    <path clip-path="url(#pa6611f6206)" d="M 171.929432 273.312 
L 173.542142 273.312 
L 173.542142 76.352914 
L 171.929432 76.352914 
z
" style="fill:#1f77b4;"/>
   </g>
   <g id="patch_73">
    <path clip-path="url(#pa6611f6206)" d="M 173.542142 273.312 
L 175.154851 273.312 
L 175.154851 79.973486 
L 173.542142 79.973486 
z
" style="fill:#1f77b4;"/>
   </g>
   <g id="patch_74">
    <path clip-path="url(#pa6611f6206)" d="M 175.154851 273.312 
L 176.767561 273.312 
L 176.767561 74.180571 
L 175.154851 74.180571 
z
" style="fill:#1f77b4;"/>
   </g>
   <g id="patch_75">
    <path clip-path="url(#pa6611f6206)" d="M 176.767561 273.312 
L 178.38027 273.312 
L 178.38027 79.973486 
L 176.767561 79.973486 
z
" style="fill:#1f77b4;"/>
   </g>
   <g id="patch_76">
    <path clip-path="url(#pa6611f6206)" d="M 178.38027 273.312 
L 179.99298 273.312 
L 179.99298 70.56 
L 178.38027 70.56 
z
" style="fill:#1f77b4;"/>
   </g>
   <g id="patch_77">
    <path clip-path="url(#pa6611f6206)" d="M 179.99298 273.312 
L 181.60569 273.312 
L 181.60569 64.767086 
L 179.99298 64.767086 
z
" style="fill:#1f77b4;"/>
   </g>
   <g id="patch_78">
    <path clip-path="url(#pa6611f6206)" d="M 181.60569 273.312 
L 183.218399 273.312 
L 183.218399 79.973486 
L 181.60569 79.973486 
z
" style="fill:#1f77b4;"/>
   </g>
   <g id="patch_79">
    <path clip-path="url(#pa6611f6206)" d="M 183.218399 273.312 
L 184.831109 273.312 
L 184.831109 75.6288 
L 183.218399 75.6288 
z
" style="fill:#1f77b4;"/>
   </g>
   <g id="patch_80">
    <path clip-path="url(#pa6611f6206)" d="M 184.831109 273.312 
L 186.443819 273.312 
L 186.443819 69.111771 
L 184.831109 69.111771 
z
" style="fill:#1f77b4;"/>
   </g>
   <g id="patch_81">
    <path clip-path="url(#pa6611f6206)" d="M 186.443819 273.312 
L 188.056528 273.312 
L 188.056528 41.595429 
L 186.443819 41.595429 
z
" style="fill:#1f77b4;"/>
   </g>
   <g id="patch_82">
    <path clip-path="url(#pa6611f6206)" d="M 188.056528 273.312 
L 189.669238 273.312 
L 189.669238 59.698286 
L 188.056528 59.698286 
z
" style="fill:#1f77b4;"/>
   </g>
   <g id="patch_83">
    <path clip-path="url(#pa6611f6206)" d="M 189.669238 273.312 
L 191.281948 273.312 
L 191.281948 65.4912 
L 189.669238 65.4912 
z
" style="fill:#1f77b4;"/>
   </g>
   <g id="patch_84">
    <path clip-path="url(#pa6611f6206)" d="M 191.281948 273.312 
L 192.894657 273.312 
L 192.894657 65.4912 
L 191.281948 65.4912 
z
" style="fill:#1f77b4;"/>
   </g>
   <g id="patch_85">
    <path clip-path="url(#pa6611f6206)" d="M 192.894657 273.312 
L 194.507367 273.312 
L 194.507367 61.870629 
L 192.894657 61.870629 
z
" style="fill:#1f77b4;"/>
   </g>
   <g id="patch_86">
    <path clip-path="url(#pa6611f6206)" d="M 194.507367 273.312 
L 196.120077 273.312 
L 196.120077 43.043657 
L 194.507367 43.043657 
z
" style="fill:#1f77b4;"/>
   </g>
   <g id="patch_87">
    <path clip-path="url(#pa6611f6206)" d="M 196.120077 273.312 
L 197.732786 273.312 
L 197.732786 74.904686 
L 196.120077 74.904686 
z
" style="fill:#1f77b4;"/>
   </g>
   <g id="patch_88">
    <path clip-path="url(#pa6611f6206)" d="M 197.732786 273.312 
L 199.345496 273.312 
L 199.345496 74.904686 
L 197.732786 74.904686 
z
" style="fill:#1f77b4;"/>
   </g>
   <g id="patch_89">
    <path clip-path="url(#pa6611f6206)" d="M 199.345496 273.312 
L 200.958206 273.312 
L 200.958206 40.1472 
L 199.345496 40.1472 
z
" style="fill:#1f77b4;"/>
   </g>
   <g id="patch_90">
    <path clip-path="url(#pa6611f6206)" d="M 200.958206 273.312 
L 202.570915 273.312 
L 202.570915 47.388343 
L 200.958206 47.388343 
z
" style="fill:#1f77b4;"/>
   </g>
   <g id="patch_91">
    <path clip-path="url(#pa6611f6206)" d="M 202.570915 273.312 
L 204.183625 273.312 
L 204.183625 55.3536 
L 202.570915 55.3536 
z
" style="fill:#1f77b4;"/>
   </g>
   <g id="patch_92">
    <path clip-path="url(#pa6611f6206)" d="M 204.183625 273.312 
L 205.796335 273.312 
L 205.796335 46.664229 
L 204.183625 46.664229 
z
" style="fill:#1f77b4;"/>
   </g>
   <g id="patch_93">
    <path clip-path="url(#pa6611f6206)" d="M 205.796335 273.312 
L 207.409044 273.312 
L 207.409044 48.112457 
L 205.796335 48.112457 
z
" style="fill:#1f77b4;"/>
   </g>
   <g id="patch_94">
    <path clip-path="url(#pa6611f6206)" d="M 207.409044 273.312 
L 209.021754 273.312 
L 209.021754 59.698286 
L 207.409044 59.698286 
z
" style="fill:#1f77b4;"/>
   </g>
   <g id="patch_95">
    <path clip-path="url(#pa6611f6206)" d="M 209.021754 273.312 
L 210.634464 273.312 
L 210.634464 37.250743 
L 209.021754 37.250743 
z
" style="fill:#1f77b4;"/>
   </g>
   <g id="patch_96">
    <path clip-path="url(#pa6611f6206)" d="M 210.634464 273.312 
L 212.247173 273.312 
L 212.247173 22.768457 
L 210.634464 22.768457 
z
" style="fill:#1f77b4;"/>
   </g>
   <g id="patch_97">
    <path clip-path="url(#pa6611f6206)" d="M 212.247173 273.312 
L 213.859883 273.312 
L 213.859883 44.491886 
L 212.247173 44.491886 
z
" style="fill:#1f77b4;"/>
   </g>
   <g id="patch_98">
    <path clip-path="url(#pa6611f6206)" d="M 213.859883 273.312 
L 215.472593 273.312 
L 215.472593 71.284114 
L 213.859883 71.284114 
z
" style="fill:#1f77b4;"/>
   </g>
   <g id="patch_99">
    <path clip-path="url(#pa6611f6206)" d="M 215.472593 273.312 
L 217.085302 273.312 
L 217.085302 48.836571 
L 215.472593 48.836571 
z
" style="fill:#1f77b4;"/>
   </g>
   <g id="patch_100">
    <path clip-path="url(#pa6611f6206)" d="M 217.085302 273.312 
L 218.698012 273.312 
L 218.698012 37.250743 
L 217.085302 37.250743 
z
" style="fill:#1f77b4;"/>
   </g>
   <g id="patch_101">
    <path clip-path="url(#pa6611f6206)" d="M 218.698012 273.312 
L 220.310722 273.312 
L 220.310722 54.629486 
L 218.698012 54.629486 
z
" style="fill:#1f77b4;"/>
   </g>
   <g id="patch_102">
    <path clip-path="url(#pa6611f6206)" d="M 220.310722 273.312 
L 221.923431 273.312 
L 221.923431 64.767086 
L 220.310722 64.767086 
z
" style="fill:#1f77b4;"/>
   </g>
   <g id="patch_103">
    <path clip-path="url(#pa6611f6206)" d="M 221.923431 273.312 
L 223.536141 273.312 
L 223.536141 40.871314 
L 221.923431 40.871314 
z
" style="fill:#1f77b4;"/>
   </g>
   <g id="patch_104">
    <path clip-path="url(#pa6611f6206)" d="M 223.536141 273.312 
L 225.148851 273.312 
L 225.148851 24.216686 
L 223.536141 24.216686 
z
" style="fill:#1f77b4;"/>
   </g>
   <g id="patch_105">
    <path clip-path="url(#pa6611f6206)" d="M 225.148851 273.312 
L 226.76156 273.312 
L 226.76156 27.837257 
L 225.148851 27.837257 
z
" style="fill:#1f77b4;"/>
   </g>
   <g id="patch_106">
    <path clip-path="url(#pa6611f6206)" d="M 226.76156 273.312 
L 228.37427 273.312 
L 228.37427 67.663543 
L 226.76156 67.663543 
z
" style="fill:#1f77b4;"/>
   </g>
   <g id="patch_107">
    <path clip-path="url(#pa6611f6206)" d="M 228.37427 273.312 
L 229.986979 273.312 
L 229.986979 52.457143 
L 228.37427 52.457143 
z
" style="fill:#1f77b4;"/>
   </g>
   <g id="patch_108">
    <path clip-path="url(#pa6611f6206)" d="M 229.986979 273.312 
L 231.599689 273.312 
L 231.599689 43.767771 
L 229.986979 43.767771 
z
" style="fill:#1f77b4;"/>
   </g>
   <g id="patch_109">
    <path clip-path="url(#pa6611f6206)" d="M 231.599689 273.312 
L 233.212399 273.312 
L 233.212399 63.318857 
L 231.599689 63.318857 
z
" style="fill:#1f77b4;"/>
   </g>
   <g id="patch_110">
    <path clip-path="url(#pa6611f6206)" d="M 233.212399 273.312 
L 234.825108 273.312 
L 234.825108 41.595429 
L 233.212399 41.595429 
z
" style="fill:#1f77b4;"/>
   </g>
   <g id="patch_111">
    <path clip-path="url(#pa6611f6206)" d="M 234.825108 273.312 
L 236.437818 273.312 
L 236.437818 27.113143 
L 234.825108 27.113143 
z
" style="fill:#1f77b4;"/>
   </g>
   <g id="patch_112">
    <path clip-path="url(#pa6611f6206)" d="M 236.437818 273.312 
L 238.050528 273.312 
L 238.050528 37.250743 
L 236.437818 37.250743 
z
" style="fill:#1f77b4;"/>
   </g>
   <g id="patch_113">
    <path clip-path="url(#pa6611f6206)" d="M 238.050528 273.312 
L 239.663237 273.312 
L 239.663237 42.319543 
L 238.050528 42.319543 
z
" style="fill:#1f77b4;"/>
   </g>
   <g id="patch_114">
    <path clip-path="url(#pa6611f6206)" d="M 239.663237 273.312 
L 241.275947 273.312 
L 241.275947 49.560686 
L 239.663237 49.560686 
z
" style="fill:#1f77b4;"/>
   </g>
   <g id="patch_115">
    <path clip-path="url(#pa6611f6206)" d="M 241.275947 273.312 
L 242.888657 273.312 
L 242.888657 19.872 
L 241.275947 19.872 
z
" style="fill:#1f77b4;"/>
   </g>
   <g id="patch_116">
    <path clip-path="url(#pa6611f6206)" d="M 242.888657 273.312 
L 244.501366 273.312 
L 244.501366 26.389029 
L 242.888657 26.389029 
z
" style="fill:#1f77b4;"/>
   </g>
   <g id="patch_117">
    <path clip-path="url(#pa6611f6206)" d="M 244.501366 273.312 
L 246.114076 273.312 
L 246.114076 39.423086 
L 244.501366 39.423086 
z
" style="fill:#1f77b4;"/>
   </g>
   <g id="patch_118">
    <path clip-path="url(#pa6611f6206)" d="M 246.114076 273.312 
L 247.726786 273.312 
L 247.726786 67.663543 
L 246.114076 67.663543 
z
" style="fill:#1f77b4;"/>
   </g>
   <g id="patch_119">
    <path clip-path="url(#pa6611f6206)" d="M 247.726786 273.312 
L 249.339495 273.312 
L 249.339495 51.008914 
L 247.726786 51.008914 
z
" style="fill:#1f77b4;"/>
   </g>
   <g id="patch_120">
    <path clip-path="url(#pa6611f6206)" d="M 249.339495 273.312 
L 250.952205 273.312 
L 250.952205 49.560686 
L 249.339495 49.560686 
z
" style="fill:#1f77b4;"/>
   </g>
   <g id="patch_121">
    <path clip-path="url(#pa6611f6206)" d="M 250.952205 273.312 
L 252.564915 273.312 
L 252.564915 37.250743 
L 250.952205 37.250743 
z
" style="fill:#1f77b4;"/>
   </g>
   <g id="patch_122">
    <path clip-path="url(#pa6611f6206)" d="M 252.564915 273.312 
L 254.177624 273.312 
L 254.177624 48.836571 
L 252.564915 48.836571 
z
" style="fill:#1f77b4;"/>
   </g>
   <g id="patch_123">
    <path clip-path="url(#pa6611f6206)" d="M 254.177624 273.312 
L 255.790334 273.312 
L 255.790334 49.560686 
L 254.177624 49.560686 
z
" style="fill:#1f77b4;"/>
   </g>
   <g id="patch_124">
    <path clip-path="url(#pa6611f6206)" d="M 255.790334 273.312 
L 257.403044 273.312 
L 257.403044 86.490514 
L 255.790334 86.490514 
z
" style="fill:#1f77b4;"/>
   </g>
   <g id="patch_125">
    <path clip-path="url(#pa6611f6206)" d="M 257.403044 273.312 
L 259.015753 273.312 
L 259.015753 45.216 
L 257.403044 45.216 
z
" style="fill:#1f77b4;"/>
   </g>
   <g id="patch_126">
    <path clip-path="url(#pa6611f6206)" d="M 259.015753 273.312 
L 260.628463 273.312 
L 260.628463 62.594743 
L 259.015753 62.594743 
z
" style="fill:#1f77b4;"/>
   </g>
   <g id="patch_127">
    <path clip-path="url(#pa6611f6206)" d="M 260.628463 273.312 
L 262.241173 273.312 
L 262.241173 48.836571 
L 260.628463 48.836571 
z
" style="fill:#1f77b4;"/>
   </g>
   <g id="patch_128">
    <path clip-path="url(#pa6611f6206)" d="M 262.241173 273.312 
L 263.853882 273.312 
L 263.853882 37.974857 
L 262.241173 37.974857 
z
" style="fill:#1f77b4;"/>
   </g>
   <g id="patch_129">
    <path clip-path="url(#pa6611f6206)" d="M 263.853882 273.312 
L 265.466592 273.312 
L 265.466592 58.974171 
L 263.853882 58.974171 
z
" style="fill:#1f77b4;"/>
   </g>
   <g id="patch_130">
    <path clip-path="url(#pa6611f6206)" d="M 265.466592 273.312 
L 267.079302 273.312 
L 267.079302 81.421714 
L 265.466592 81.421714 
z
" style="fill:#1f77b4;"/>
   </g>
   <g id="patch_131">
    <path clip-path="url(#pa6611f6206)" d="M 267.079302 273.312 
L 268.692011 273.312 
L 268.692011 82.145829 
L 267.079302 82.145829 
z
" style="fill:#1f77b4;"/>
   </g>
   <g id="patch_132">
    <path clip-path="url(#pa6611f6206)" d="M 268.692011 273.312 
L 270.304721 273.312 
L 270.304721 56.801829 
L 268.692011 56.801829 
z
" style="fill:#1f77b4;"/>
   </g>
   <g id="patch_133">
    <path clip-path="url(#pa6611f6206)" d="M 270.304721 273.312 
L 271.917431 273.312 
L 271.917431 58.974171 
L 270.304721 58.974171 
z
" style="fill:#1f77b4;"/>
   </g>
   <g id="patch_134">
    <path clip-path="url(#pa6611f6206)" d="M 271.917431 273.312 
L 273.53014 273.312 
L 273.53014 88.662857 
L 271.917431 88.662857 
z
" style="fill:#1f77b4;"/>
   </g>
   <g id="patch_135">
    <path clip-path="url(#pa6611f6206)" d="M 273.53014 273.312 
L 275.14285 273.312 
L 275.14285 82.145829 
L 273.53014 82.145829 
z
" style="fill:#1f77b4;"/>
   </g>
   <g id="patch_136">
    <path clip-path="url(#pa6611f6206)" d="M 275.14285 273.312 
L 276.755559 273.312 
L 276.755559 56.801829 
L 275.14285 56.801829 
z
" style="fill:#1f77b4;"/>
   </g>
   <g id="patch_137">
    <path clip-path="url(#pa6611f6206)" d="M 276.755559 273.312 
L 278.368269 273.312 
L 278.368269 103.145143 
L 276.755559 103.145143 
z
" style="fill:#1f77b4;"/>
   </g>
   <g id="patch_138">
    <path clip-path="url(#pa6611f6206)" d="M 278.368269 273.312 
L 279.980979 273.312 
L 279.980979 64.767086 
L 278.368269 64.767086 
z
" style="fill:#1f77b4;"/>
   </g>
   <g id="patch_139">
    <path clip-path="url(#pa6611f6206)" d="M 279.980979 273.312 
L 281.593688 273.312 
L 281.593688 74.904686 
L 279.980979 74.904686 
z
" style="fill:#1f77b4;"/>
   </g>
   <g id="patch_140">
    <path clip-path="url(#pa6611f6206)" d="M 281.593688 273.312 
L 283.206398 273.312 
L 283.206398 64.767086 
L 281.593688 64.767086 
z
" style="fill:#1f77b4;"/>
   </g>
   <g id="patch_141">
    <path clip-path="url(#pa6611f6206)" d="M 283.206398 273.312 
L 284.819108 273.312 
L 284.819108 78.525257 
L 283.206398 78.525257 
z
" style="fill:#1f77b4;"/>
   </g>
   <g id="patch_142">
    <path clip-path="url(#pa6611f6206)" d="M 284.819108 273.312 
L 286.431817 273.312 
L 286.431817 101.696914 
L 284.819108 101.696914 
z
" style="fill:#1f77b4;"/>
   </g>
   <g id="patch_143">
    <path clip-path="url(#pa6611f6206)" d="M 286.431817 273.312 
L 288.044527 273.312 
L 288.044527 77.801143 
L 286.431817 77.801143 
z
" style="fill:#1f77b4;"/>
   </g>
   <g id="patch_144">
    <path clip-path="url(#pa6611f6206)" d="M 288.044527 273.312 
L 289.657237 273.312 
L 289.657237 87.214629 
L 288.044527 87.214629 
z
" style="fill:#1f77b4;"/>
   </g>
   <g id="patch_145">
    <path clip-path="url(#pa6611f6206)" d="M 289.657237 273.312 
L 291.269946 273.312 
L 291.269946 99.524571 
L 289.657237 99.524571 
z
" style="fill:#1f77b4;"/>
   </g>
   <g id="patch_146">
    <path clip-path="url(#pa6611f6206)" d="M 291.269946 273.312 
L 292.882656 273.312 
L 292.882656 98.800457 
L 291.269946 98.800457 
z
" style="fill:#1f77b4;"/>
   </g>
   <g id="patch_147">
    <path clip-path="url(#pa6611f6206)" d="M 292.882656 273.312 
L 294.495366 273.312 
L 294.495366 76.352914 
L 292.882656 76.352914 
z
" style="fill:#1f77b4;"/>
   </g>
   <g id="patch_148">
    <path clip-path="url(#pa6611f6206)" d="M 294.495366 273.312 
L 296.108075 273.312 
L 296.108075 108.938057 
L 294.495366 108.938057 
z
" style="fill:#1f77b4;"/>
   </g>
   <g id="patch_149">
    <path clip-path="url(#pa6611f6206)" d="M 296.108075 273.312 
L 297.720785 273.312 
L 297.720785 103.869257 
L 296.108075 103.869257 
z
" style="fill:#1f77b4;"/>
   </g>
   <g id="patch_150">
    <path clip-path="url(#pa6611f6206)" d="M 297.720785 273.312 
L 299.333495 273.312 
L 299.333495 124.144457 
L 297.720785 124.144457 
z
" style="fill:#1f77b4;"/>
   </g>
   <g id="patch_151">
    <path clip-path="url(#pa6611f6206)" d="M 299.333495 273.312 
L 300.946204 273.312 
L 300.946204 111.834514 
L 299.333495 111.834514 
z
" style="fill:#1f77b4;"/>
   </g>
   <g id="patch_152">
    <path clip-path="url(#pa6611f6206)" d="M 300.946204 273.312 
L 302.558914 273.312 
L 302.558914 101.696914 
L 300.946204 101.696914 
z
" style="fill:#1f77b4;"/>
   </g>
   <g id="patch_153">
    <path clip-path="url(#pa6611f6206)" d="M 302.558914 273.312 
L 304.171624 273.312 
L 304.171624 143.695543 
L 302.558914 143.695543 
z
" style="fill:#1f77b4;"/>
   </g>
   <g id="patch_154">
    <path clip-path="url(#pa6611f6206)" d="M 304.171624 273.312 
L 305.784333 273.312 
L 305.784333 133.557943 
L 304.171624 133.557943 
z
" style="fill:#1f77b4;"/>
   </g>
   <g id="patch_155">
    <path clip-path="url(#pa6611f6206)" d="M 305.784333 273.312 
L 307.397043 273.312 
L 307.397043 115.455086 
L 305.784333 115.455086 
z
" style="fill:#1f77b4;"/>
   </g>
   <g id="patch_156">
    <path clip-path="url(#pa6611f6206)" d="M 307.397043 273.312 
L 309.009753 273.312 
L 309.009753 112.558629 
L 307.397043 112.558629 
z
" style="fill:#1f77b4;"/>
   </g>
   <g id="patch_157">
    <path clip-path="url(#pa6611f6206)" d="M 309.009753 273.312 
L 310.622462 273.312 
L 310.622462 130.661486 
L 309.009753 130.661486 
z
" style="fill:#1f77b4;"/>
   </g>
   <g id="patch_158">
    <path clip-path="url(#pa6611f6206)" d="M 310.622462 273.312 
L 312.235172 273.312 
L 312.235172 136.4544 
L 310.622462 136.4544 
z
" style="fill:#1f77b4;"/>
   </g>
   <g id="patch_159">
    <path clip-path="url(#pa6611f6206)" d="M 312.235172 273.312 
L 313.847882 273.312 
L 313.847882 129.937371 
L 312.235172 129.937371 
z
" style="fill:#1f77b4;"/>
   </g>
   <g id="patch_160">
    <path clip-path="url(#pa6611f6206)" d="M 313.847882 273.312 
L 315.460591 273.312 
L 315.460591 130.661486 
L 313.847882 130.661486 
z
" style="fill:#1f77b4;"/>
   </g>
   <g id="patch_161">
    <path clip-path="url(#pa6611f6206)" d="M 315.460591 273.312 
L 317.073301 273.312 
L 317.073301 131.3856 
L 315.460591 131.3856 
z
" style="fill:#1f77b4;"/>
   </g>
   <g id="patch_162">
    <path clip-path="url(#pa6611f6206)" d="M 317.073301 273.312 
L 318.686011 273.312 
L 318.686011 158.177829 
L 317.073301 158.177829 
z
" style="fill:#1f77b4;"/>
   </g>
   <g id="patch_163">
    <path clip-path="url(#pa6611f6206)" d="M 318.686011 273.312 
L 320.29872 273.312 
L 320.29872 143.695543 
L 318.686011 143.695543 
z
" style="fill:#1f77b4;"/>
   </g>
   <g id="patch_164">
    <path clip-path="url(#pa6611f6206)" d="M 320.29872 273.312 
L 321.91143 273.312 
L 321.91143 144.419657 
L 320.29872 144.419657 
z
" style="fill:#1f77b4;"/>
   </g>
   <g id="patch_165">
    <path clip-path="url(#pa6611f6206)" d="M 321.91143 273.312 
L 323.524139 273.312 
L 323.524139 150.212571 
L 321.91143 150.212571 
z
" style="fill:#1f77b4;"/>
   </g>
   <g id="patch_166">
    <path clip-path="url(#pa6611f6206)" d="M 323.524139 273.312 
L 325.136849 273.312 
L 325.136849 153.109029 
L 323.524139 153.109029 
z
" style="fill:#1f77b4;"/>
   </g>
   <g id="patch_167">
    <path clip-path="url(#pa6611f6206)" d="M 325.136849 273.312 
L 326.749559 273.312 
L 326.749559 149.488457 
L 325.136849 149.488457 
z
" style="fill:#1f77b4;"/>
   </g>
   <g id="patch_168">
    <path clip-path="url(#pa6611f6206)" d="M 326.749559 273.312 
L 328.362268 273.312 
L 328.362268 153.833143 
L 326.749559 153.833143 
z
" style="fill:#1f77b4;"/>
   </g>
   <g id="patch_169">
    <path clip-path="url(#pa6611f6206)" d="M 328.362268 273.312 
L 329.974978 273.312 
L 329.974978 164.694857 
L 328.362268 164.694857 
z
" style="fill:#1f77b4;"/>
   </g>
   <g id="patch_170">
    <path clip-path="url(#pa6611f6206)" d="M 329.974978 273.312 
L 331.587688 273.312 
L 331.587688 182.797714 
L 329.974978 182.797714 
z
" style="fill:#1f77b4;"/>
   </g>
   <g id="patch_171">
    <path clip-path="url(#pa6611f6206)" d="M 331.587688 273.312 
L 333.200397 273.312 
L 333.200397 169.763657 
L 331.587688 169.763657 
z
" style="fill:#1f77b4;"/>
   </g>
   <g id="patch_172">
    <path clip-path="url(#pa6611f6206)" d="M 333.200397 273.312 
L 334.813107 273.312 
L 334.813107 153.109029 
L 333.200397 153.109029 
z
" style="fill:#1f77b4;"/>
   </g>
   <g id="patch_173">
    <path clip-path="url(#pa6611f6206)" d="M 334.813107 273.312 
L 336.425817 273.312 
L 336.425817 181.349486 
L 334.813107 181.349486 
z
" style="fill:#1f77b4;"/>
   </g>
   <g id="patch_174">
    <path clip-path="url(#pa6611f6206)" d="M 336.425817 273.312 
L 338.038526 273.312 
L 338.038526 163.970743 
L 336.425817 163.970743 
z
" style="fill:#1f77b4;"/>
   </g>
   <g id="patch_175">
    <path clip-path="url(#pa6611f6206)" d="M 338.038526 273.312 
L 339.651236 273.312 
L 339.651236 170.487771 
L 338.038526 170.487771 
z
" style="fill:#1f77b4;"/>
   </g>
   <g id="patch_176">
    <path clip-path="url(#pa6611f6206)" d="M 339.651236 273.312 
L 341.263946 273.312 
L 341.263946 177.0048 
L 339.651236 177.0048 
z
" style="fill:#1f77b4;"/>
   </g>
   <g id="patch_177">
    <path clip-path="url(#pa6611f6206)" d="M 341.263946 273.312 
L 342.876655 273.312 
L 342.876655 182.797714 
L 341.263946 182.797714 
z
" style="fill:#1f77b4;"/>
   </g>
   <g id="patch_178">
    <path clip-path="url(#pa6611f6206)" d="M 342.876655 273.312 
L 344.489365 273.312 
L 344.489365 185.694171 
L 342.876655 185.694171 
z
" style="fill:#1f77b4;"/>
   </g>
   <g id="patch_179">
    <path clip-path="url(#pa6611f6206)" d="M 344.489365 273.312 
L 346.102075 273.312 
L 346.102075 174.108343 
L 344.489365 174.108343 
z
" style="fill:#1f77b4;"/>
   </g>
   <g id="patch_180">
    <path clip-path="url(#pa6611f6206)" d="M 346.102075 273.312 
L 347.714784 273.312 
L 347.714784 203.072914 
L 346.102075 203.072914 
z
" style="fill:#1f77b4;"/>
   </g>
   <g id="patch_181">
    <path clip-path="url(#pa6611f6206)" d="M 347.714784 273.312 
L 349.327494 273.312 
L 349.327494 200.176457 
L 347.714784 200.176457 
z
" style="fill:#1f77b4;"/>
   </g>
   <g id="patch_182">
    <path clip-path="url(#pa6611f6206)" d="M 349.327494 273.312 
L 350.940204 273.312 
L 350.940204 201.624686 
L 349.327494 201.624686 
z
" style="fill:#1f77b4;"/>
   </g>
   <g id="patch_183">
    <path clip-path="url(#pa6611f6206)" d="M 350.940204 273.312 
L 352.552913 273.312 
L 352.552913 206.693486 
L 350.940204 206.693486 
z
" style="fill:#1f77b4;"/>
   </g>
   <g id="patch_184">
    <path clip-path="url(#pa6611f6206)" d="M 352.552913 273.312 
L 354.165623 273.312 
L 354.165623 208.865829 
L 352.552913 208.865829 
z
" style="fill:#1f77b4;"/>
   </g>
   <g id="patch_185">
    <path clip-path="url(#pa6611f6206)" d="M 354.165623 273.312 
L 355.778333 273.312 
L 355.778333 206.693486 
L 354.165623 206.693486 
z
" style="fill:#1f77b4;"/>
   </g>
   <g id="patch_186">
    <path clip-path="url(#pa6611f6206)" d="M 355.778333 273.312 
L 357.391042 273.312 
L 357.391042 218.279314 
L 355.778333 218.279314 
z
" style="fill:#1f77b4;"/>
   </g>
   <g id="patch_187">
    <path clip-path="url(#pa6611f6206)" d="M 357.391042 273.312 
L 359.003752 273.312 
L 359.003752 211.762286 
L 357.391042 211.762286 
z
" style="fill:#1f77b4;"/>
   </g>
   <g id="patch_188">
    <path clip-path="url(#pa6611f6206)" d="M 359.003752 273.312 
L 360.616462 273.312 
L 360.616462 220.451657 
L 359.003752 220.451657 
z
" style="fill:#1f77b4;"/>
   </g>
   <g id="patch_189">
    <path clip-path="url(#pa6611f6206)" d="M 360.616462 273.312 
L 362.229171 273.312 
L 362.229171 226.968686 
L 360.616462 226.968686 
z
" style="fill:#1f77b4;"/>
   </g>
   <g id="patch_190">
    <path clip-path="url(#pa6611f6206)" d="M 362.229171 273.312 
L 363.841881 273.312 
L 363.841881 234.209829 
L 362.229171 234.209829 
z
" style="fill:#1f77b4;"/>
   </g>
   <g id="patch_191">
    <path clip-path="url(#pa6611f6206)" d="M 363.841881 273.312 
L 365.454591 273.312 
L 365.454591 235.658057 
L 363.841881 235.658057 
z
" style="fill:#1f77b4;"/>
   </g>
   <g id="patch_192">
    <path clip-path="url(#pa6611f6206)" d="M 365.454591 273.312 
L 367.0673 273.312 
L 367.0673 235.658057 
L 365.454591 235.658057 
z
" style="fill:#1f77b4;"/>
   </g>
   <g id="patch_193">
    <path clip-path="url(#pa6611f6206)" d="M 367.0673 273.312 
L 368.68001 273.312 
L 368.68001 232.7616 
L 367.0673 232.7616 
z
" style="fill:#1f77b4;"/>
   </g>
   <g id="patch_194">
    <path clip-path="url(#pa6611f6206)" d="M 368.68001 273.312 
L 370.292719 273.312 
L 370.292719 232.037486 
L 368.68001 232.037486 
z
" style="fill:#1f77b4;"/>
   </g>
   <g id="patch_195">
    <path clip-path="url(#pa6611f6206)" d="M 370.292719 273.312 
L 371.905429 273.312 
L 371.905429 241.450971 
L 370.292719 241.450971 
z
" style="fill:#1f77b4;"/>
   </g>
   <g id="patch_196">
    <path clip-path="url(#pa6611f6206)" d="M 371.905429 273.312 
L 373.518139 273.312 
L 373.518139 250.864457 
L 371.905429 250.864457 
z
" style="fill:#1f77b4;"/>
   </g>
   <g id="patch_197">
    <path clip-path="url(#pa6611f6206)" d="M 373.518139 273.312 
L 375.130848 273.312 
L 375.130848 245.795657 
L 373.518139 245.795657 
z
" style="fill:#1f77b4;"/>
   </g>
   <g id="patch_198">
    <path clip-path="url(#pa6611f6206)" d="M 375.130848 273.312 
L 376.743558 273.312 
L 376.743558 261.002057 
L 375.130848 261.002057 
z
" style="fill:#1f77b4;"/>
   </g>
   <g id="patch_199">
    <path clip-path="url(#pa6611f6206)" d="M 376.743558 273.312 
L 378.356268 273.312 
L 378.356268 261.726171 
L 376.743558 261.726171 
z
" style="fill:#1f77b4;"/>
   </g>
   <g id="patch_200">
    <path clip-path="url(#pa6611f6206)" d="M 378.356268 273.312 
L 379.968977 273.312 
L 379.968977 261.002057 
L 378.356268 261.002057 
z
" style="fill:#1f77b4;"/>
   </g>
   <g id="patch_201">
    <path clip-path="url(#pa6611f6206)" d="M 379.968977 273.312 
L 381.581687 273.312 
L 381.581687 268.2432 
L 379.968977 268.2432 
z
" style="fill:#1f77b4;"/>
   </g>
   <g id="patch_202">
    <path clip-path="url(#pa6611f6206)" d="M 381.581687 273.312 
L 383.194397 273.312 
L 383.194397 266.070857 
L 381.581687 266.070857 
z
" style="fill:#1f77b4;"/>
   </g>
   <g id="matplotlib.axis_1">
    <g id="xtick_1">
     <g id="line2d_1">
      <defs>
       <path d="M 0 0 
L 0 3.5 
" id="m7fd1a8d5cc" style="stroke:#000000;stroke-width:0.8;"/>
      </defs>
      <g>
       <use style="stroke:#000000;stroke-width:0.8;" x="60.013977" xlink:href="#m7fd1a8d5cc" y="273.312"/>
      </g>
     </g>
     <g id="text_1">
      <!-- 0.0 -->
      <g transform="translate(52.062415 287.910437)scale(0.1 -0.1)">
       <defs>
        <path d="M 2034 4250 
Q 1547 4250 1301 3770 
Q 1056 3291 1056 2328 
Q 1056 1369 1301 889 
Q 1547 409 2034 409 
Q 2525 409 2770 889 
Q 3016 1369 3016 2328 
Q 3016 3291 2770 3770 
Q 2525 4250 2034 4250 
z
M 2034 4750 
Q 2819 4750 3233 4129 
Q 3647 3509 3647 2328 
Q 3647 1150 3233 529 
Q 2819 -91 2034 -91 
Q 1250 -91 836 529 
Q 422 1150 422 2328 
Q 422 3509 836 4129 
Q 1250 4750 2034 4750 
z
" id="DejaVuSans-30" transform="scale(0.015625)"/>
        <path d="M 684 794 
L 1344 794 
L 1344 0 
L 684 0 
L 684 794 
z
" id="DejaVuSans-2e" transform="scale(0.015625)"/>
       </defs>
       <use xlink:href="#DejaVuSans-30"/>
       <use x="63.623047" xlink:href="#DejaVuSans-2e"/>
       <use x="95.410156" xlink:href="#DejaVuSans-30"/>
      </g>
     </g>
    </g>
    <g id="xtick_2">
     <g id="line2d_2">
      <g>
       <use style="stroke:#000000;stroke-width:0.8;" x="101.350278" xlink:href="#m7fd1a8d5cc" y="273.312"/>
      </g>
     </g>
     <g id="text_2">
      <!-- 0.2 -->
      <g transform="translate(93.398715 287.910437)scale(0.1 -0.1)">
       <defs>
        <path d="M 1228 531 
L 3431 531 
L 3431 0 
L 469 0 
L 469 531 
Q 828 903 1448 1529 
Q 2069 2156 2228 2338 
Q 2531 2678 2651 2914 
Q 2772 3150 2772 3378 
Q 2772 3750 2511 3984 
Q 2250 4219 1831 4219 
Q 1534 4219 1204 4116 
Q 875 4013 500 3803 
L 500 4441 
Q 881 4594 1212 4672 
Q 1544 4750 1819 4750 
Q 2544 4750 2975 4387 
Q 3406 4025 3406 3419 
Q 3406 3131 3298 2873 
Q 3191 2616 2906 2266 
Q 2828 2175 2409 1742 
Q 1991 1309 1228 531 
z
" id="DejaVuSans-32" transform="scale(0.015625)"/>
       </defs>
       <use xlink:href="#DejaVuSans-30"/>
       <use x="63.623047" xlink:href="#DejaVuSans-2e"/>
       <use x="95.410156" xlink:href="#DejaVuSans-32"/>
      </g>
     </g>
    </g>
    <g id="xtick_3">
     <g id="line2d_3">
      <g>
       <use style="stroke:#000000;stroke-width:0.8;" x="142.686578" xlink:href="#m7fd1a8d5cc" y="273.312"/>
      </g>
     </g>
     <g id="text_3">
      <!-- 0.4 -->
      <g transform="translate(134.735016 287.910437)scale(0.1 -0.1)">
       <defs>
        <path d="M 2419 4116 
L 825 1625 
L 2419 1625 
L 2419 4116 
z
M 2253 4666 
L 3047 4666 
L 3047 1625 
L 3713 1625 
L 3713 1100 
L 3047 1100 
L 3047 0 
L 2419 0 
L 2419 1100 
L 313 1100 
L 313 1709 
L 2253 4666 
z
" id="DejaVuSans-34" transform="scale(0.015625)"/>
       </defs>
       <use xlink:href="#DejaVuSans-30"/>
       <use x="63.623047" xlink:href="#DejaVuSans-2e"/>
       <use x="95.410156" xlink:href="#DejaVuSans-34"/>
      </g>
     </g>
    </g>
    <g id="xtick_4">
     <g id="line2d_4">
      <g>
       <use style="stroke:#000000;stroke-width:0.8;" x="184.022879" xlink:href="#m7fd1a8d5cc" y="273.312"/>
      </g>
     </g>
     <g id="text_4">
      <!-- 0.6 -->
      <g transform="translate(176.071316 287.910437)scale(0.1 -0.1)">
       <defs>
        <path d="M 2113 2584 
Q 1688 2584 1439 2293 
Q 1191 2003 1191 1497 
Q 1191 994 1439 701 
Q 1688 409 2113 409 
Q 2538 409 2786 701 
Q 3034 994 3034 1497 
Q 3034 2003 2786 2293 
Q 2538 2584 2113 2584 
z
M 3366 4563 
L 3366 3988 
Q 3128 4100 2886 4159 
Q 2644 4219 2406 4219 
Q 1781 4219 1451 3797 
Q 1122 3375 1075 2522 
Q 1259 2794 1537 2939 
Q 1816 3084 2150 3084 
Q 2853 3084 3261 2657 
Q 3669 2231 3669 1497 
Q 3669 778 3244 343 
Q 2819 -91 2113 -91 
Q 1303 -91 875 529 
Q 447 1150 447 2328 
Q 447 3434 972 4092 
Q 1497 4750 2381 4750 
Q 2619 4750 2861 4703 
Q 3103 4656 3366 4563 
z
" id="DejaVuSans-36" transform="scale(0.015625)"/>
       </defs>
       <use xlink:href="#DejaVuSans-30"/>
       <use x="63.623047" xlink:href="#DejaVuSans-2e"/>
       <use x="95.410156" xlink:href="#DejaVuSans-36"/>
      </g>
     </g>
    </g>
    <g id="xtick_5">
     <g id="line2d_5">
      <g>
       <use style="stroke:#000000;stroke-width:0.8;" x="225.35918" xlink:href="#m7fd1a8d5cc" y="273.312"/>
      </g>
     </g>
     <g id="text_5">
      <!-- 0.8 -->
      <g transform="translate(217.407617 287.910437)scale(0.1 -0.1)">
       <defs>
        <path d="M 2034 2216 
Q 1584 2216 1326 1975 
Q 1069 1734 1069 1313 
Q 1069 891 1326 650 
Q 1584 409 2034 409 
Q 2484 409 2743 651 
Q 3003 894 3003 1313 
Q 3003 1734 2745 1975 
Q 2488 2216 2034 2216 
z
M 1403 2484 
Q 997 2584 770 2862 
Q 544 3141 544 3541 
Q 544 4100 942 4425 
Q 1341 4750 2034 4750 
Q 2731 4750 3128 4425 
Q 3525 4100 3525 3541 
Q 3525 3141 3298 2862 
Q 3072 2584 2669 2484 
Q 3125 2378 3379 2068 
Q 3634 1759 3634 1313 
Q 3634 634 3220 271 
Q 2806 -91 2034 -91 
Q 1263 -91 848 271 
Q 434 634 434 1313 
Q 434 1759 690 2068 
Q 947 2378 1403 2484 
z
M 1172 3481 
Q 1172 3119 1398 2916 
Q 1625 2713 2034 2713 
Q 2441 2713 2670 2916 
Q 2900 3119 2900 3481 
Q 2900 3844 2670 4047 
Q 2441 4250 2034 4250 
Q 1625 4250 1398 4047 
Q 1172 3844 1172 3481 
z
" id="DejaVuSans-38" transform="scale(0.015625)"/>
       </defs>
       <use xlink:href="#DejaVuSans-30"/>
       <use x="63.623047" xlink:href="#DejaVuSans-2e"/>
       <use x="95.410156" xlink:href="#DejaVuSans-38"/>
      </g>
     </g>
    </g>
    <g id="xtick_6">
     <g id="line2d_6">
      <g>
       <use style="stroke:#000000;stroke-width:0.8;" x="266.69548" xlink:href="#m7fd1a8d5cc" y="273.312"/>
      </g>
     </g>
     <g id="text_6">
      <!-- 1.0 -->
      <g transform="translate(258.743918 287.910437)scale(0.1 -0.1)">
       <defs>
        <path d="M 794 531 
L 1825 531 
L 1825 4091 
L 703 3866 
L 703 4441 
L 1819 4666 
L 2450 4666 
L 2450 531 
L 3481 531 
L 3481 0 
L 794 0 
L 794 531 
z
" id="DejaVuSans-31" transform="scale(0.015625)"/>
       </defs>
       <use xlink:href="#DejaVuSans-31"/>
       <use x="63.623047" xlink:href="#DejaVuSans-2e"/>
       <use x="95.410156" xlink:href="#DejaVuSans-30"/>
      </g>
     </g>
    </g>
    <g id="xtick_7">
     <g id="line2d_7">
      <g>
       <use style="stroke:#000000;stroke-width:0.8;" x="308.031781" xlink:href="#m7fd1a8d5cc" y="273.312"/>
      </g>
     </g>
     <g id="text_7">
      <!-- 1.2 -->
      <g transform="translate(300.080218 287.910437)scale(0.1 -0.1)">
       <use xlink:href="#DejaVuSans-31"/>
       <use x="63.623047" xlink:href="#DejaVuSans-2e"/>
       <use x="95.410156" xlink:href="#DejaVuSans-32"/>
      </g>
     </g>
    </g>
    <g id="xtick_8">
     <g id="line2d_8">
      <g>
       <use style="stroke:#000000;stroke-width:0.8;" x="349.368081" xlink:href="#m7fd1a8d5cc" y="273.312"/>
      </g>
     </g>
     <g id="text_8">
      <!-- 1.4 -->
      <g transform="translate(341.416519 287.910437)scale(0.1 -0.1)">
       <use xlink:href="#DejaVuSans-31"/>
       <use x="63.623047" xlink:href="#DejaVuSans-2e"/>
       <use x="95.410156" xlink:href="#DejaVuSans-34"/>
      </g>
     </g>
    </g>
    <g id="xtick_9">
     <g id="line2d_9">
      <g>
       <use style="stroke:#000000;stroke-width:0.8;" x="390.704382" xlink:href="#m7fd1a8d5cc" y="273.312"/>
      </g>
     </g>
     <g id="text_9">
      <!-- 1.6 -->
      <g transform="translate(382.752819 287.910437)scale(0.1 -0.1)">
       <use xlink:href="#DejaVuSans-31"/>
       <use x="63.623047" xlink:href="#DejaVuSans-2e"/>
       <use x="95.410156" xlink:href="#DejaVuSans-36"/>
      </g>
     </g>
    </g>
    <g id="text_10">
     <!-- Angle with normal (rad) -->
     <g transform="translate(163.023281 301.588562)scale(0.1 -0.1)">
      <defs>
       <path d="M 2188 4044 
L 1331 1722 
L 3047 1722 
L 2188 4044 
z
M 1831 4666 
L 2547 4666 
L 4325 0 
L 3669 0 
L 3244 1197 
L 1141 1197 
L 716 0 
L 50 0 
L 1831 4666 
z
" id="DejaVuSans-41" transform="scale(0.015625)"/>
       <path d="M 3513 2113 
L 3513 0 
L 2938 0 
L 2938 2094 
Q 2938 2591 2744 2837 
Q 2550 3084 2163 3084 
Q 1697 3084 1428 2787 
Q 1159 2491 1159 1978 
L 1159 0 
L 581 0 
L 581 3500 
L 1159 3500 
L 1159 2956 
Q 1366 3272 1645 3428 
Q 1925 3584 2291 3584 
Q 2894 3584 3203 3211 
Q 3513 2838 3513 2113 
z
" id="DejaVuSans-6e" transform="scale(0.015625)"/>
       <path d="M 2906 1791 
Q 2906 2416 2648 2759 
Q 2391 3103 1925 3103 
Q 1463 3103 1205 2759 
Q 947 2416 947 1791 
Q 947 1169 1205 825 
Q 1463 481 1925 481 
Q 2391 481 2648 825 
Q 2906 1169 2906 1791 
z
M 3481 434 
Q 3481 -459 3084 -895 
Q 2688 -1331 1869 -1331 
Q 1566 -1331 1297 -1286 
Q 1028 -1241 775 -1147 
L 775 -588 
Q 1028 -725 1275 -790 
Q 1522 -856 1778 -856 
Q 2344 -856 2625 -561 
Q 2906 -266 2906 331 
L 2906 616 
Q 2728 306 2450 153 
Q 2172 0 1784 0 
Q 1141 0 747 490 
Q 353 981 353 1791 
Q 353 2603 747 3093 
Q 1141 3584 1784 3584 
Q 2172 3584 2450 3431 
Q 2728 3278 2906 2969 
L 2906 3500 
L 3481 3500 
L 3481 434 
z
" id="DejaVuSans-67" transform="scale(0.015625)"/>
       <path d="M 603 4863 
L 1178 4863 
L 1178 0 
L 603 0 
L 603 4863 
z
" id="DejaVuSans-6c" transform="scale(0.015625)"/>
       <path d="M 3597 1894 
L 3597 1613 
L 953 1613 
Q 991 1019 1311 708 
Q 1631 397 2203 397 
Q 2534 397 2845 478 
Q 3156 559 3463 722 
L 3463 178 
Q 3153 47 2828 -22 
Q 2503 -91 2169 -91 
Q 1331 -91 842 396 
Q 353 884 353 1716 
Q 353 2575 817 3079 
Q 1281 3584 2069 3584 
Q 2775 3584 3186 3129 
Q 3597 2675 3597 1894 
z
M 3022 2063 
Q 3016 2534 2758 2815 
Q 2500 3097 2075 3097 
Q 1594 3097 1305 2825 
Q 1016 2553 972 2059 
L 3022 2063 
z
" id="DejaVuSans-65" transform="scale(0.015625)"/>
       <path id="DejaVuSans-20" transform="scale(0.015625)"/>
       <path d="M 269 3500 
L 844 3500 
L 1563 769 
L 2278 3500 
L 2956 3500 
L 3675 769 
L 4391 3500 
L 4966 3500 
L 4050 0 
L 3372 0 
L 2619 2869 
L 1863 0 
L 1184 0 
L 269 3500 
z
" id="DejaVuSans-77" transform="scale(0.015625)"/>
       <path d="M 603 3500 
L 1178 3500 
L 1178 0 
L 603 0 
L 603 3500 
z
M 603 4863 
L 1178 4863 
L 1178 4134 
L 603 4134 
L 603 4863 
z
" id="DejaVuSans-69" transform="scale(0.015625)"/>
       <path d="M 1172 4494 
L 1172 3500 
L 2356 3500 
L 2356 3053 
L 1172 3053 
L 1172 1153 
Q 1172 725 1289 603 
Q 1406 481 1766 481 
L 2356 481 
L 2356 0 
L 1766 0 
Q 1100 0 847 248 
Q 594 497 594 1153 
L 594 3053 
L 172 3053 
L 172 3500 
L 594 3500 
L 594 4494 
L 1172 4494 
z
" id="DejaVuSans-74" transform="scale(0.015625)"/>
       <path d="M 3513 2113 
L 3513 0 
L 2938 0 
L 2938 2094 
Q 2938 2591 2744 2837 
Q 2550 3084 2163 3084 
Q 1697 3084 1428 2787 
Q 1159 2491 1159 1978 
L 1159 0 
L 581 0 
L 581 4863 
L 1159 4863 
L 1159 2956 
Q 1366 3272 1645 3428 
Q 1925 3584 2291 3584 
Q 2894 3584 3203 3211 
Q 3513 2838 3513 2113 
z
" id="DejaVuSans-68" transform="scale(0.015625)"/>
       <path d="M 1959 3097 
Q 1497 3097 1228 2736 
Q 959 2375 959 1747 
Q 959 1119 1226 758 
Q 1494 397 1959 397 
Q 2419 397 2687 759 
Q 2956 1122 2956 1747 
Q 2956 2369 2687 2733 
Q 2419 3097 1959 3097 
z
M 1959 3584 
Q 2709 3584 3137 3096 
Q 3566 2609 3566 1747 
Q 3566 888 3137 398 
Q 2709 -91 1959 -91 
Q 1206 -91 779 398 
Q 353 888 353 1747 
Q 353 2609 779 3096 
Q 1206 3584 1959 3584 
z
" id="DejaVuSans-6f" transform="scale(0.015625)"/>
       <path d="M 2631 2963 
Q 2534 3019 2420 3045 
Q 2306 3072 2169 3072 
Q 1681 3072 1420 2755 
Q 1159 2438 1159 1844 
L 1159 0 
L 581 0 
L 581 3500 
L 1159 3500 
L 1159 2956 
Q 1341 3275 1631 3429 
Q 1922 3584 2338 3584 
Q 2397 3584 2469 3576 
Q 2541 3569 2628 3553 
L 2631 2963 
z
" id="DejaVuSans-72" transform="scale(0.015625)"/>
       <path d="M 3328 2828 
Q 3544 3216 3844 3400 
Q 4144 3584 4550 3584 
Q 5097 3584 5394 3201 
Q 5691 2819 5691 2113 
L 5691 0 
L 5113 0 
L 5113 2094 
Q 5113 2597 4934 2840 
Q 4756 3084 4391 3084 
Q 3944 3084 3684 2787 
Q 3425 2491 3425 1978 
L 3425 0 
L 2847 0 
L 2847 2094 
Q 2847 2600 2669 2842 
Q 2491 3084 2119 3084 
Q 1678 3084 1418 2786 
Q 1159 2488 1159 1978 
L 1159 0 
L 581 0 
L 581 3500 
L 1159 3500 
L 1159 2956 
Q 1356 3278 1631 3431 
Q 1906 3584 2284 3584 
Q 2666 3584 2933 3390 
Q 3200 3197 3328 2828 
z
" id="DejaVuSans-6d" transform="scale(0.015625)"/>
       <path d="M 2194 1759 
Q 1497 1759 1228 1600 
Q 959 1441 959 1056 
Q 959 750 1161 570 
Q 1363 391 1709 391 
Q 2188 391 2477 730 
Q 2766 1069 2766 1631 
L 2766 1759 
L 2194 1759 
z
M 3341 1997 
L 3341 0 
L 2766 0 
L 2766 531 
Q 2569 213 2275 61 
Q 1981 -91 1556 -91 
Q 1019 -91 701 211 
Q 384 513 384 1019 
Q 384 1609 779 1909 
Q 1175 2209 1959 2209 
L 2766 2209 
L 2766 2266 
Q 2766 2663 2505 2880 
Q 2244 3097 1772 3097 
Q 1472 3097 1187 3025 
Q 903 2953 641 2809 
L 641 3341 
Q 956 3463 1253 3523 
Q 1550 3584 1831 3584 
Q 2591 3584 2966 3190 
Q 3341 2797 3341 1997 
z
" id="DejaVuSans-61" transform="scale(0.015625)"/>
       <path d="M 1984 4856 
Q 1566 4138 1362 3434 
Q 1159 2731 1159 2009 
Q 1159 1288 1364 580 
Q 1569 -128 1984 -844 
L 1484 -844 
Q 1016 -109 783 600 
Q 550 1309 550 2009 
Q 550 2706 781 3412 
Q 1013 4119 1484 4856 
L 1984 4856 
z
" id="DejaVuSans-28" transform="scale(0.015625)"/>
       <path d="M 2906 2969 
L 2906 4863 
L 3481 4863 
L 3481 0 
L 2906 0 
L 2906 525 
Q 2725 213 2448 61 
Q 2172 -91 1784 -91 
Q 1150 -91 751 415 
Q 353 922 353 1747 
Q 353 2572 751 3078 
Q 1150 3584 1784 3584 
Q 2172 3584 2448 3432 
Q 2725 3281 2906 2969 
z
M 947 1747 
Q 947 1113 1208 752 
Q 1469 391 1925 391 
Q 2381 391 2643 752 
Q 2906 1113 2906 1747 
Q 2906 2381 2643 2742 
Q 2381 3103 1925 3103 
Q 1469 3103 1208 2742 
Q 947 2381 947 1747 
z
" id="DejaVuSans-64" transform="scale(0.015625)"/>
       <path d="M 513 4856 
L 1013 4856 
Q 1481 4119 1714 3412 
Q 1947 2706 1947 2009 
Q 1947 1309 1714 600 
Q 1481 -109 1013 -844 
L 513 -844 
Q 928 -128 1133 580 
Q 1338 1288 1338 2009 
Q 1338 2731 1133 3434 
Q 928 4138 513 4856 
z
" id="DejaVuSans-29" transform="scale(0.015625)"/>
      </defs>
      <use xlink:href="#DejaVuSans-41"/>
      <use x="68.408203" xlink:href="#DejaVuSans-6e"/>
      <use x="131.787109" xlink:href="#DejaVuSans-67"/>
      <use x="195.263672" xlink:href="#DejaVuSans-6c"/>
      <use x="223.046875" xlink:href="#DejaVuSans-65"/>
      <use x="284.570312" xlink:href="#DejaVuSans-20"/>
      <use x="316.357422" xlink:href="#DejaVuSans-77"/>
      <use x="398.144531" xlink:href="#DejaVuSans-69"/>
      <use x="425.927734" xlink:href="#DejaVuSans-74"/>
      <use x="465.136719" xlink:href="#DejaVuSans-68"/>
      <use x="528.515625" xlink:href="#DejaVuSans-20"/>
      <use x="560.302734" xlink:href="#DejaVuSans-6e"/>
      <use x="623.681641" xlink:href="#DejaVuSans-6f"/>
      <use x="684.863281" xlink:href="#DejaVuSans-72"/>
      <use x="724.226562" xlink:href="#DejaVuSans-6d"/>
      <use x="821.638672" xlink:href="#DejaVuSans-61"/>
      <use x="882.917969" xlink:href="#DejaVuSans-6c"/>
      <use x="910.701172" xlink:href="#DejaVuSans-20"/>
      <use x="942.488281" xlink:href="#DejaVuSans-28"/>
      <use x="981.501953" xlink:href="#DejaVuSans-72"/>
      <use x="1022.615234" xlink:href="#DejaVuSans-61"/>
      <use x="1083.894531" xlink:href="#DejaVuSans-64"/>
      <use x="1147.371094" xlink:href="#DejaVuSans-29"/>
     </g>
    </g>
   </g>
   <g id="matplotlib.axis_2">
    <g id="ytick_1">
     <g id="line2d_10">
      <defs>
       <path d="M 0 0 
L -3.5 0 
" id="m63ae831505" style="stroke:#000000;stroke-width:0.8;"/>
      </defs>
      <g>
       <use style="stroke:#000000;stroke-width:0.8;" x="43.78125" xlink:href="#m63ae831505" y="273.312"/>
      </g>
     </g>
     <g id="text_11">
      <!-- 0.0 -->
      <g transform="translate(20.878125 277.111219)scale(0.1 -0.1)">
       <use xlink:href="#DejaVuSans-30"/>
       <use x="63.623047" xlink:href="#DejaVuSans-2e"/>
       <use x="95.410156" xlink:href="#DejaVuSans-30"/>
      </g>
     </g>
    </g>
    <g id="ytick_2">
     <g id="line2d_11">
      <g>
       <use style="stroke:#000000;stroke-width:0.8;" x="43.78125" xlink:href="#m63ae831505" y="228.110622"/>
      </g>
     </g>
     <g id="text_12">
      <!-- 0.2 -->
      <g transform="translate(20.878125 231.90984)scale(0.1 -0.1)">
       <use xlink:href="#DejaVuSans-30"/>
       <use x="63.623047" xlink:href="#DejaVuSans-2e"/>
       <use x="95.410156" xlink:href="#DejaVuSans-32"/>
      </g>
     </g>
    </g>
    <g id="ytick_3">
     <g id="line2d_12">
      <g>
       <use style="stroke:#000000;stroke-width:0.8;" x="43.78125" xlink:href="#m63ae831505" y="182.909243"/>
      </g>
     </g>
     <g id="text_13">
      <!-- 0.4 -->
      <g transform="translate(20.878125 186.708462)scale(0.1 -0.1)">
       <use xlink:href="#DejaVuSans-30"/>
       <use x="63.623047" xlink:href="#DejaVuSans-2e"/>
       <use x="95.410156" xlink:href="#DejaVuSans-34"/>
      </g>
     </g>
    </g>
    <g id="ytick_4">
     <g id="line2d_13">
      <g>
       <use style="stroke:#000000;stroke-width:0.8;" x="43.78125" xlink:href="#m63ae831505" y="137.707865"/>
      </g>
     </g>
     <g id="text_14">
      <!-- 0.6 -->
      <g transform="translate(20.878125 141.507084)scale(0.1 -0.1)">
       <use xlink:href="#DejaVuSans-30"/>
       <use x="63.623047" xlink:href="#DejaVuSans-2e"/>
       <use x="95.410156" xlink:href="#DejaVuSans-36"/>
      </g>
     </g>
    </g>
    <g id="ytick_5">
     <g id="line2d_14">
      <g>
       <use style="stroke:#000000;stroke-width:0.8;" x="43.78125" xlink:href="#m63ae831505" y="92.506487"/>
      </g>
     </g>
     <g id="text_15">
      <!-- 0.8 -->
      <g transform="translate(20.878125 96.305705)scale(0.1 -0.1)">
       <use xlink:href="#DejaVuSans-30"/>
       <use x="63.623047" xlink:href="#DejaVuSans-2e"/>
       <use x="95.410156" xlink:href="#DejaVuSans-38"/>
      </g>
     </g>
    </g>
    <g id="ytick_6">
     <g id="line2d_15">
      <g>
       <use style="stroke:#000000;stroke-width:0.8;" x="43.78125" xlink:href="#m63ae831505" y="47.305108"/>
      </g>
     </g>
     <g id="text_16">
      <!-- 1.0 -->
      <g transform="translate(20.878125 51.104327)scale(0.1 -0.1)">
       <use xlink:href="#DejaVuSans-31"/>
       <use x="63.623047" xlink:href="#DejaVuSans-2e"/>
       <use x="95.410156" xlink:href="#DejaVuSans-30"/>
      </g>
     </g>
    </g>
    <g id="text_17">
     <!-- Probability density -->
     <g transform="translate(14.798438 186.606781)rotate(-90)scale(0.1 -0.1)">
      <defs>
       <path d="M 1259 4147 
L 1259 2394 
L 2053 2394 
Q 2494 2394 2734 2622 
Q 2975 2850 2975 3272 
Q 2975 3691 2734 3919 
Q 2494 4147 2053 4147 
L 1259 4147 
z
M 628 4666 
L 2053 4666 
Q 2838 4666 3239 4311 
Q 3641 3956 3641 3272 
Q 3641 2581 3239 2228 
Q 2838 1875 2053 1875 
L 1259 1875 
L 1259 0 
L 628 0 
L 628 4666 
z
" id="DejaVuSans-50" transform="scale(0.015625)"/>
       <path d="M 3116 1747 
Q 3116 2381 2855 2742 
Q 2594 3103 2138 3103 
Q 1681 3103 1420 2742 
Q 1159 2381 1159 1747 
Q 1159 1113 1420 752 
Q 1681 391 2138 391 
Q 2594 391 2855 752 
Q 3116 1113 3116 1747 
z
M 1159 2969 
Q 1341 3281 1617 3432 
Q 1894 3584 2278 3584 
Q 2916 3584 3314 3078 
Q 3713 2572 3713 1747 
Q 3713 922 3314 415 
Q 2916 -91 2278 -91 
Q 1894 -91 1617 61 
Q 1341 213 1159 525 
L 1159 0 
L 581 0 
L 581 4863 
L 1159 4863 
L 1159 2969 
z
" id="DejaVuSans-62" transform="scale(0.015625)"/>
       <path d="M 2059 -325 
Q 1816 -950 1584 -1140 
Q 1353 -1331 966 -1331 
L 506 -1331 
L 506 -850 
L 844 -850 
Q 1081 -850 1212 -737 
Q 1344 -625 1503 -206 
L 1606 56 
L 191 3500 
L 800 3500 
L 1894 763 
L 2988 3500 
L 3597 3500 
L 2059 -325 
z
" id="DejaVuSans-79" transform="scale(0.015625)"/>
       <path d="M 2834 3397 
L 2834 2853 
Q 2591 2978 2328 3040 
Q 2066 3103 1784 3103 
Q 1356 3103 1142 2972 
Q 928 2841 928 2578 
Q 928 2378 1081 2264 
Q 1234 2150 1697 2047 
L 1894 2003 
Q 2506 1872 2764 1633 
Q 3022 1394 3022 966 
Q 3022 478 2636 193 
Q 2250 -91 1575 -91 
Q 1294 -91 989 -36 
Q 684 19 347 128 
L 347 722 
Q 666 556 975 473 
Q 1284 391 1588 391 
Q 1994 391 2212 530 
Q 2431 669 2431 922 
Q 2431 1156 2273 1281 
Q 2116 1406 1581 1522 
L 1381 1569 
Q 847 1681 609 1914 
Q 372 2147 372 2553 
Q 372 3047 722 3315 
Q 1072 3584 1716 3584 
Q 2034 3584 2315 3537 
Q 2597 3491 2834 3397 
z
" id="DejaVuSans-73" transform="scale(0.015625)"/>
      </defs>
      <use xlink:href="#DejaVuSans-50"/>
      <use x="58.552734" xlink:href="#DejaVuSans-72"/>
      <use x="97.416016" xlink:href="#DejaVuSans-6f"/>
      <use x="158.597656" xlink:href="#DejaVuSans-62"/>
      <use x="222.074219" xlink:href="#DejaVuSans-61"/>
      <use x="283.353516" xlink:href="#DejaVuSans-62"/>
      <use x="346.830078" xlink:href="#DejaVuSans-69"/>
      <use x="374.613281" xlink:href="#DejaVuSans-6c"/>
      <use x="402.396484" xlink:href="#DejaVuSans-69"/>
      <use x="430.179688" xlink:href="#DejaVuSans-74"/>
      <use x="469.388672" xlink:href="#DejaVuSans-79"/>
      <use x="528.568359" xlink:href="#DejaVuSans-20"/>
      <use x="560.355469" xlink:href="#DejaVuSans-64"/>
      <use x="623.832031" xlink:href="#DejaVuSans-65"/>
      <use x="685.355469" xlink:href="#DejaVuSans-6e"/>
      <use x="748.734375" xlink:href="#DejaVuSans-73"/>
      <use x="800.833984" xlink:href="#DejaVuSans-69"/>
      <use x="828.617188" xlink:href="#DejaVuSans-74"/>
      <use x="867.826172" xlink:href="#DejaVuSans-79"/>
     </g>
    </g>
   </g>
   <g id="line2d_16">
    <path clip-path="url(#pa6611f6206)" d="M 60.013977 273.312 
L 79.837728 230.222736 
L 90.237073 208.152136 
L 99.01152 190.034021 
L 106.811029 174.428784 
L 113.960578 160.61645 
L 120.460169 148.525991 
L 126.63478 137.496405 
L 132.484411 127.493837 
L 138.009063 118.475336 
L 143.208736 110.391041 
L 148.408408 102.719122 
L 153.283101 95.918503 
L 158.157794 89.512532 
L 162.707507 83.902269 
L 167.257221 78.659083 
L 171.481954 74.127988 
L 175.706688 69.929743 
L 179.606442 66.355946 
L 183.506197 63.076834 
L 187.405951 60.097076 
L 190.980726 57.632237 
L 194.555501 55.425458 
L 198.130275 53.479378 
L 201.70505 51.796328 
L 205.279825 50.378319 
L 208.52962 49.32065 
L 211.779415 48.484476 
L 215.029211 47.870624 
L 218.279006 47.4797 
L 221.528801 47.312093 
L 224.778596 47.367967 
L 228.028392 47.647267 
L 231.278187 48.149716 
L 234.527982 48.874819 
L 237.777777 49.821858 
L 241.027573 50.989896 
L 244.277368 52.377779 
L 247.852143 54.156726 
L 251.426917 56.197891 
L 255.001692 58.498833 
L 258.576467 61.056797 
L 262.476221 64.136832 
L 266.375976 67.514712 
L 270.27573 71.185626 
L 274.500464 75.48706 
L 278.725198 80.119074 
L 282.949931 85.073926 
L 287.499645 90.761457 
L 292.049358 96.802772 
L 296.924051 103.654886 
L 301.798744 110.884435 
L 306.998416 118.993835 
L 312.523068 128.03757 
L 318.3727 138.065162 
L 324.547311 149.119184 
L 331.046901 161.233076 
L 337.871471 174.428784 
L 345.346 189.373711 
L 353.795468 206.792328 
L 363.544854 227.435437 
L 375.894076 254.145277 
L 384.668523 273.312 
L 384.668523 273.312 
" style="fill:none;stroke:#ff7f0e;stroke-linecap:square;stroke-width:1.5;"/>
   </g>
   <g id="patch_203">
    <path d="M 43.78125 273.312 
L 43.78125 7.2 
" style="fill:none;stroke:#000000;stroke-linecap:square;stroke-linejoin:miter;stroke-width:0.8;"/>
   </g>
   <g id="patch_204">
    <path d="M 400.90125 273.312 
L 400.90125 7.2 
" style="fill:none;stroke:#000000;stroke-linecap:square;stroke-linejoin:miter;stroke-width:0.8;"/>
   </g>
   <g id="patch_205">
    <path d="M 43.78125 273.312 
L 400.90125 273.312 
" style="fill:none;stroke:#000000;stroke-linecap:square;stroke-linejoin:miter;stroke-width:0.8;"/>
   </g>
   <g id="patch_206">
    <path d="M 43.78125 7.2 
L 400.90125 7.2 
" style="fill:none;stroke:#000000;stroke-linecap:square;stroke-linejoin:miter;stroke-width:0.8;"/>
   </g>
  </g>
 </g>
 <defs>
  <clipPath id="pa6611f6206">
   <rect height="266.112" width="357.12" x="43.78125" y="7.2"/>
  </clipPath>
 </defs>
</svg>
